<?xml version="1.0" encoding="utf-8"?><svg xmlns="http://www.w3.org/2000/svg" xmlns:xlink="http://www.w3.org/1999/xlink"><symbol viewBox="0 0 51 8" id="arrow-l" xmlns="http://www.w3.org/2000/svg"><path d="M.646 3.646a.5.5 0 000 .708l3.182 3.182a.5.5 0 10.708-.708L1.707 4l2.829-2.828a.5.5 0 10-.708-.708L.646 3.646zM51 3.5H1v1h50v-1z"/></symbol><symbol viewBox="0 0 51 8" id="arrow-r" xmlns="http://www.w3.org/2000/svg"><path d="M50.354 4.354a.5.5 0 000-.708L47.172.464a.5.5 0 10-.707.708L49.293 4l-2.828 2.828a.5.5 0 10.707.708l3.182-3.182zM0 4.5h50v-1H0v1z"/></symbol><symbol viewBox="0 0 40 40" id="brend-biceps" xmlns="http://www.w3.org/2000/svg"><path d="M39.495 16.42a1.172 1.172 0 00-1.075-.14l-2.49.918c-1.682-1.197-3.79-1.849-6.01-1.849-3.07 0-5.928 1.277-7.669 3.378-1.354-.878-2.977-1.194-4.616-.869a6.48 6.48 0 00-3.02 1.485c-.524-3.054 1.214-5.921 3.535-9.2 1.044-.553 2.369-.52 3.766-.484.85.021 1.73.043 2.581-.072a3.673 3.673 0 002.941-2.234 3.673 3.673 0 00-.4-3.672l-1.595-2.216A3.499 3.499 0 0021.737.106c-4.175 1.044-7.896 2.952-11.06 5.674-2.59 2.23-4.81 5.004-6.596 8.244C.871 19.851.04 25.368.001 26.841a1.17 1.17 0 00.016.227c.45 2.648 2.404 5.052 5.503 6.77 2.952 1.635 6.747 2.536 10.686 2.536 3.849 0 7.513-.846 10.427-2.396l6.329 5.715c.215.194.494.301.784.302l5.078.005a1.172 1.172 0 001.173-1.172V17.38a1.17 1.17 0 00-.502-.96z"/></symbol><symbol viewBox="0 0 40 40" id="brend-certificat" xmlns="http://www.w3.org/2000/svg"><g clip-path="url(#adclip0)"><path d="M24.036 29.856a4.683 4.683 0 01-1.602-.282l-2.42-.878-2.42.883a4.685 4.685 0 01-1.61.285 4.703 4.703 0 01-4.058-2.343l-.016-.027.008 10.16a2.34 2.34 0 001.258 2.078 2.345 2.345 0 002.425-.152l4.37-3.033 4.369 3.033c.72.5 1.649.558 2.425.152a2.339 2.339 0 001.258-2.078v-10.02a4.703 4.703 0 01-3.987 2.222z"/><path d="M33.091 10.26l-2.629-2.2-.598-3.376a2.342 2.342 0 00-2.31-1.936h-.002l-3.428.003L21.495.548a2.342 2.342 0 00-3.015.003l-2.625 2.206-3.428.004a2.342 2.342 0 00-2.308 1.94l-.593 3.377-2.624 2.207a2.342 2.342 0 00-.521 2.97l1.717 2.967-.592 3.377a2.342 2.342 0 001.51 2.61l3.223 1.17 1.717 2.968a2.342 2.342 0 002.834 1.028l3.221-1.175 3.223 1.17a2.342 2.342 0 002.832-1.034l1.712-2.971L31 22.189a2.342 2.342 0 001.505-2.613l-.598-3.376 1.711-2.97a2.342 2.342 0 00-.526-2.97zM19.998 20.819a6.77 6.77 0 01-6.763-6.763 6.77 6.77 0 016.763-6.762 6.77 6.77 0 016.762 6.763 6.77 6.77 0 01-6.762 6.762z"/><path d="M24.088 15.749a4.418 4.418 0 10-8.162-3.384 4.418 4.418 0 008.162 3.384z"/></g><defs><clipPath id="adclip0"><path d="M0 0h40v40H0z"/></clipPath></defs></symbol><symbol viewBox="0 0 40 40" id="brend-rtiangle" xmlns="http://www.w3.org/2000/svg"><g clip-path="url(#aeclip0)"><path d="M25.86 29.453H14.14c-.647 0-1.171.525-1.171 1.172v2.344c0 .647.524 1.172 1.172 1.172h11.718c.648 0 1.172-.525 1.172-1.172v-2.344c0-.647-.524-1.172-1.172-1.172zM14.772 4.83l-1.657-1.658a1.172 1.172 0 00-1.657 0L3.17 11.46a1.172 1.172 0 000 1.657l1.658 1.657a1.17 1.17 0 001.657 0l8.286-8.286a1.17 1.17 0 000-1.657zM28.54 3.172a1.172 1.172 0 00-1.657 0L25.226 4.83a1.172 1.172 0 000 1.657l8.287 8.286a1.17 1.17 0 001.657 0l1.657-1.657a1.17 1.17 0 000-1.657l-8.286-8.287zM15.313 38.828c0 .647.524 1.172 1.171 1.172h7.032c.647 0 1.172-.525 1.172-1.172v-2.344h-9.375v2.344zM6.972.343a1.172 1.172 0 00-1.657 0L.343 5.315a1.172 1.172 0 000 1.657l2 2 6.63-6.629-2-2zm32.683 4.972L34.683.343a1.172 1.172 0 00-1.657 0l-2 2 6.628 6.63 2.001-2.001a1.17 1.17 0 000-1.657zM20.002 13.37l-4.398-4.397-6.63 6.629 6.34 6.34v5.167h9.375v-5.168l6.34-6.34-6.63-6.628-4.397 4.398z"/></g><defs><clipPath id="aeclip0"><path d="M0 0h40v40H0z"/></clipPath></defs></symbol><symbol viewBox="0 0 344.96 344.96" id="check" xmlns="http://www.w3.org/2000/svg"><g data-name="Слой 2"><path d="M321.85 86.24l-40-23.11-23.1-40H212.5L172.48 0l-40 23.11H86.24l-23.11 40-40 23.1v46.21L0 172.48l23.11 40v46.21l40 23.11 23.11 40h46.21l40 23.1 40-23.11h46.21l23.11-40 40-23.11V212.5l23.11-40-23.11-40V86.24zM156.91 243.07a16.79 16.79 0 01-23.34 0l-50.45-50.44a16.19 16.19 0 010-22.89l13.35-13.35a16.19 16.19 0 0122.89 0l25.87 25.87 80.34-80.35a16.19 16.19 0 0122.89 0l13.35 13.35a16.19 16.19 0 010 22.89z" data-name="Capa 1"/></g></symbol><symbol viewBox="0 0 40 40" id="clock" xmlns="http://www.w3.org/2000/svg"><path d="M40 20c0 11.028-8.972 20-20 20S0 31.028 0 20 8.972 0 20 0s20 8.972 20 20zm-2.344 0c0-9.736-7.92-17.656-17.656-17.656-9.736 0-17.656 7.92-17.656 17.656 0 9.736 7.92 17.656 17.656 17.656 9.736 0 17.656-7.92 17.656-17.656z"/><path d="M35.315 20.003c0 8.443-6.87 15.312-15.313 15.312-8.443 0-15.312-6.87-15.312-15.313 0-8.443 6.87-15.312 15.312-15.312 8.444 0 15.313 6.87 15.313 15.312zm-2.344 0c0-7.152-5.817-12.97-12.968-12.97-7.152 0-12.97 5.818-12.97 12.97 0 7.15 5.818 12.968 12.97 12.968 7.15 0 12.968-5.817 12.968-12.968z"/><path d="M28.346 13.317l-1.658-1.657-6.684 6.684-6.657-6.656-1.657 1.657 6.657 6.657-1.658 1.657 1.658 1.657 1.657-1.657 1.657 1.657 1.658-1.657-1.658-1.657z"/><path d="M18.83 9.38h2.344v2.344H18.83zm0 18.9h2.344v2.344H18.83zm-9.45-9.45h2.344v2.344H9.38zm18.9 0h2.344v2.344H28.28z"/></symbol><symbol viewBox="0 0 26 26" id="comparation_analog" xmlns="http://www.w3.org/2000/svg"><path d="M13 0C5.832 0 0 5.832 0 13s5.832 13 13 13 13-5.832 13-13S20.168 0 13 0zm6.784 16.11H6.216a.848.848 0 010-1.697h13.568a.848.848 0 010 1.696zm0-5.089H6.216a.848.848 0 010-1.696h13.568a.848.848 0 010 1.696z"/></symbol><symbol viewBox="0 0 20 20" id="comparation_cartwheel" xmlns="http://www.w3.org/2000/svg"><g clip-path="url(#aiclip0)"><path d="M18.121 6.636c-.358-.862.03-2.627-1.05-3.708-1.079-1.078-2.847-.692-3.707-1.05C12.564 1.549 11.557 0 10 0 8.442 0 7.437 1.547 6.636 1.88c-.862.357-2.627-.031-3.708 1.049-1.078 1.079-.692 2.847-1.05 3.707C1.549 7.436 0 8.443 0 10c0 1.558 1.547 2.563 1.88 3.364.357.862-.031 2.627 1.049 3.708 1.08 1.078 2.846.692 3.708 1.05C7.43 18.448 8.443 20 10 20c1.558 0 2.563-1.547 3.364-1.879.862-.358 2.626.03 3.708-1.05 1.078-1.079.692-2.847 1.05-3.707.33-.8 1.878-1.806 1.878-3.364 0-1.558-1.547-2.563-1.879-3.364zM10 14.546A4.55 4.55 0 015.455 10 4.55 4.55 0 0110 5.455 4.55 4.55 0 0114.546 10 4.55 4.55 0 0110 14.546z"/></g><defs><clipPath id="aiclip0"><path d="M0 0h20v20H0z"/></clipPath></defs></symbol><symbol viewBox="0 0 15 14" id="comparation_check" xmlns="http://www.w3.org/2000/svg"><path d="M6.957 13.91L.811 9.122l1.747-2.243 3.775 2.94L12.563.83 14.9 2.45 6.957 13.91z"/></symbol><symbol viewBox="0 0 20 20" id="comparation_coins" xmlns="http://www.w3.org/2000/svg"><g clip-path="url(#akclip0)"><path d="M4.313 9.537a1.99 1.99 0 100 3.979 1.99 1.99 0 000-3.979zm9.497-5.846c-.882-.268-2.097-.419-3.33-.419-1.245 0-2.417.151-3.29.42-.826.254-1.116.544-1.116.635.005.004.009.009.009.013.021.095.285.393 1.215.662.86.25 1.993.389 3.187.389 1.232 0 2.447-.156 3.325-.42.942-.285 1.146-.58 1.146-.64 0-.06-.204-.354-1.146-.64zm.253 2.098c-.968.294-2.235.454-3.571.454-1.276 0-2.49-.147-3.43-.42a4.79 4.79 0 01-.933-.359l.03 1.22c.484.181.943.44 1.35.765.008.004.02.004.034.009.83.211 1.876.324 2.944.324 1.233 0 2.448-.151 3.325-.42.939-.285 1.142-.583 1.142-.64 0-.086.022-.168.07-.242V5.4a4.26 4.26 0 01-.96.389zm-3.759 7.804a.442.442 0 010-.152 16.599 16.599 0 01-1.163-.056c-.2.515-.48.995-.83 1.423.67.112 1.34.168 2.01.177l-.017-1.392z"/><path d="M8.533 10.657a4.304 4.304 0 00-1.418-2.4 4.21 4.21 0 00-1.53-.851 4.318 4.318 0 00-4.177.934 4.312 4.312 0 00-.286 6.088 4.308 4.308 0 006.088.285 4.277 4.277 0 001.41-3.187c0-.29-.03-.583-.087-.869zm-4.22 3.719a2.854 2.854 0 010-5.708 2.862 2.862 0 012.854 2.854 2.857 2.857 0 01-2.854 2.854zm5.98-1.803l-.018-1.44c-.008-.03-.017-.06-.021-.091a15.308 15.308 0 01-.791-.03 5.315 5.315 0 01-.078 1.522c.29.021.596.034.908.039zm8.53-2.335c-.878-.268-2.089-.41-3.325-.41h-.035c-1.159 0-2.261.129-3.109.367-.843.233-1.167.497-1.24.631a.37.37 0 01.02.117c.105.147.455.402 1.268.622.847.23 1.95.36 3.096.36 1.232 0 2.404-.144 3.29-.407.96-.286 1.172-.584 1.176-.649v-.004c-.013-.074-.233-.35-1.141-.627zm.234 4.497c-.969.294-2.223.454-3.559.454-1.18 0-2.326-.13-3.234-.368-.372-.09-.73-.22-1.076-.389l.012.977.005.264v.009c0 .095.277.38 1.102.635.87.264 2.033.411 3.282.411 1.245 0 2.413-.151 3.295-.424.921-.285 1.111-.583 1.111-.644v-1.319c-.26.169-.622.299-.938.394zm-.029-2.387c-.964.285-2.214.44-3.528.44-1.609 0-3.325-.242-4.346-.773l.018 1.366c.371.415 1.971.938 4.323.938 1.254 0 2.43-.147 3.317-.415.93-.285 1.128-.58 1.128-.64 0-.086.057-.164.061-.229v-1.08a4.728 4.728 0 01-.973.393zm-4.972-4.151c-.969.294-2.236.454-3.572.454-.653 0-1.31-.043-1.959-.125.346.488.61 1.033.77 1.608.372.03.77.048 1.19.048h.034c.302-.337.834-.614 1.595-.83.809-.23 1.825-.368 2.906-.398V7.799a4.578 4.578 0 01-.964.398z"/></g><defs><clipPath id="akclip0"><path d="M0 0h20v20H0z"/></clipPath></defs></symbol><symbol viewBox="0 0 20 20" id="comparation_diamond" xmlns="http://www.w3.org/2000/svg"><g clip-path="url(#alclip0)"><path d="M9.483 16.334l-6.223-8h4.15l2.073 8zm2.222-4.57a.334.334 0 00-.647-.167l-1.056 4.077-1.9-7.34h3.8l-.41 1.583a.334.334 0 10.646.167l.454-1.75h4.15l-6.224 8 1.187-4.57zM1.333 10.333h-1a.333.333 0 010-.667h1a.333.333 0 110 .667zm18.334 0h-1a.333.333 0 010-.667h1a.333.333 0 110 .667zM10.001 20a.333.333 0 01-.333-.333v-1a.333.333 0 11.667 0v1c0 .184-.15.333-.334.333zm0-18.333a.333.333 0 01-.333-.334v-1a.333.333 0 11.667 0v1c0 .184-.15.334-.334.334zM3.165 17.169a.333.333 0 01-.236-.57l.707-.706a.333.333 0 01.472.471l-.708.707a.334.334 0 01-.235.098zM16.126 4.205a.333.333 0 01-.235-.57l.707-.706a.333.333 0 11.47.47l-.706.708a.333.333 0 01-.236.098zm.709 12.964a.333.333 0 01-.236-.098l-.707-.707a.333.333 0 01.472-.471l.707.707a.334.334 0 01-.236.57v-.001zM3.873 4.205a.333.333 0 01-.236-.098L2.93 3.4a.333.333 0 11.47-.471l.708.707a.333.333 0 01-.236.569zM7.06 7.667H3.213l1.923-3.023L7.06 7.667zm2.547-3.334L7.667 7.38l-1.94-3.047h3.88zm2.115 3.333H8.275L10 4.953l1.723 2.713zm2.551-3.333l-1.94 3.047-1.94-3.047h3.88zm2.513 3.334H12.94l1.924-3.023 1.923 3.023z"/></g><defs><clipPath id="alclip0"><path d="M0 0h20v20H0z"/></clipPath></defs></symbol><symbol viewBox="0 0 20 20" id="comparation_refresh" xmlns="http://www.w3.org/2000/svg"><path d="M17.143 0a.714.714 0 00-.714.714v2.61A9.268 9.268 0 00.715 10a.714.714 0 101.428 0 7.857 7.857 0 0113.653-5.304l-3.164 1.055a.715.715 0 00.451 1.357L17.37 5.68a.714.714 0 00.489-.68V.714A.714.714 0 0017.143 0zm1.428 9.286a.714.714 0 00-.714.714 7.857 7.857 0 01-13.653 5.303l3.164-1.055a.715.715 0 10-.451-1.357L2.63 14.32a.714.714 0 00-.488.68v4.286a.714.714 0 101.428 0v-2.61A9.268 9.268 0 0019.285 10a.714.714 0 00-.714-.714z"/></symbol><symbol viewBox="0 0 20 20" id="comparation_sandClock" xmlns="http://www.w3.org/2000/svg"><g clip-path="url(#anclip0)"><path d="M9.545 9.544a.454.454 0 10.909 0c0-.532.19-1.049.532-1.455.763-.905 1.335-1.886 1.697-2.916a.455.455 0 00-.428-.605H7.744a.455.455 0 00-.43.605A9.355 9.355 0 009.013 8.09c.343.406.533.924.533 1.455zm.909 1.822a.454.454 0 00-.909 0c0 .656-.392 1.305-1.103 1.831-1.52 1.123-2.659 2.343-3.383 3.626a.453.453 0 00.396.677h9.09a.454.454 0 00.396-.677c-.723-1.283-1.862-2.503-3.382-3.626-.712-.526-1.104-1.175-1.105-1.831z"/><path d="M17.954 18.182h-.272c-.312-3.537-2.384-6.253-3.994-8.182 1.61-1.928 3.681-4.644 3.995-8.182h.272a.91.91 0 000-1.818H2.045a.909.909 0 000 1.818h.273C2.63 5.356 4.7 8.072 6.31 10c-1.61 1.929-3.68 4.644-3.994 8.182h-.271a.908.908 0 100 1.818h15.91a.91.91 0 10-.001-1.818zm-13.814 0c.341-3.196 2.42-5.657 3.972-7.496l.083-.099a.908.908 0 000-1.172l-.083-.098c-1.552-1.84-3.63-4.3-3.972-7.497h11.72c-.341 3.196-2.42 5.658-3.972 7.497l-.083.098a.908.908 0 000 1.172l.083.099c1.553 1.839 3.63 4.3 3.972 7.496H4.14z"/></g><defs><clipPath id="anclip0"><path d="M0 0h20v20H0z"/></clipPath></defs></symbol><symbol viewBox="0 0 22 22" id="comparation_worth" xmlns="http://www.w3.org/2000/svg"><path d="M15.122 17.133l2.01-2.01L6.876 4.863l-2.01 2.01 10.257 10.259z"/><path d="M6.875 17.135L17.133 6.877l-2.01-2.01L4.864 15.125l2.01 2.01z"/></symbol><symbol viewBox="0 0 22 23" id="contacts_location" xmlns="http://www.w3.org/2000/svg"><circle cx="11" cy="11.998" r="11"/><g clip-path="url(#apclip0)"><path d="M11 5.999a4.505 4.505 0 00-4.5 4.5c0 3.32 4.152 7.265 4.329 7.432a.25.25 0 00.342 0c.177-.167 4.329-4.113 4.329-7.433 0-2.48-2.019-4.5-4.5-4.5zm0 7a2.503 2.503 0 01-2.5-2.5c0-1.379 1.122-2.5 2.5-2.5s2.5 1.121 2.5 2.5c0 1.378-1.122 2.5-2.5 2.5z"/></g><defs><clipPath id="apclip0"><path transform="translate(5 5.999)" d="M0 0h12v12H0z"/></clipPath></defs></symbol><symbol viewBox="0 0 22 23" id="contacts_mail" xmlns="http://www.w3.org/2000/svg"><g clip-path="url(#aqclip0)"><path d="M11.002.999c-6.075 0-11 4.925-11 11 0 6.074 4.925 11 11 11s11-4.926 11-11c0-6.076-4.925-11-11-11zm0 3.863l6.51 4.06H4.491l6.51-4.06zm6.59 10.541a1.18 1.18 0 01-1.179 1.179H5.591a1.179 1.179 0 01-1.179-1.179V9.18c0-.07.007-.136.019-.202l6.219 3.878.024.012a.74.74 0 00.16.066l.014.004a.664.664 0 00.308 0l.015-.004a.664.664 0 00.16-.066l.024-.012 6.219-3.878c.011.066.018.133.018.202v6.223z"/></g><defs><clipPath id="aqclip0"><path transform="translate(0 .999)" d="M0 0h22v22H0z"/></clipPath></defs></symbol><symbol viewBox="0 0 22 23" id="contacts_phone" xmlns="http://www.w3.org/2000/svg"><g clip-path="url(#arclip0)"><path d="M18.777 4.219C14.481-.076 7.516-.075 3.221 4.22c-4.295 4.297-4.294 11.261.002 15.556 4.296 4.296 11.261 4.294 15.556-.002a11 11 0 00-.002-15.556zM16.659 16.32l-.001.001v-.003l-.558.553c-.72.73-1.77 1.03-2.768.792a9.747 9.747 0 01-2.83-1.268 13.077 13.077 0 01-2.234-1.8A13.181 13.181 0 016.6 12.57a10.264 10.264 0 01-1.254-2.537 2.933 2.933 0 01.733-2.996l.653-.652a.466.466 0 01.659-.002l.001.002 2.06 2.06a.466.466 0 010 .66l-1.21 1.21A.986.986 0 008.14 11.6a14.3 14.3 0 001.448 1.69c.587.59 1.225 1.126 1.907 1.602a.993.993 0 001.269-.11l1.17-1.188a.466.466 0 01.66 0l2.064 2.068a.466.466 0 01.001.659z"/></g><defs><clipPath id="arclip0"><path transform="translate(0 .999)" d="M0 0h22v22H0z"/></clipPath></defs></symbol><symbol viewBox="0 0 48 48" id="done" xmlns="http://www.w3.org/2000/svg"><path d="M24 0C10.766 0 0 10.766 0 24s10.766 24 24 24 24-10.766 24-24S37.234 0 24 0z"/><path d="M36.165 18.914l-13 13a1.995 1.995 0 01-2.828 0l-6.5-6.5a1.997 1.997 0 010-2.828 1.997 1.997 0 012.828 0l5.085 5.086 11.587-11.586a1.997 1.997 0 012.828 0 1.998 1.998 0 010 2.828z"/></symbol><symbol viewBox="0 0 16 16" id="mail" xmlns="http://www.w3.org/2000/svg"><path d="M8 0C3.589 0 0 3.589 0 8s3.589 8 8 8c1.407 0 2.79-.37 4.001-1.07L11 13.197A5.997 5.997 0 018 14c-3.309 0-6-2.691-6-6s2.691-6 6-6 6 2.691 6 6v.871C14 9.525 13.58 10 13 10c-.551 0-1-.449-1-1V5h-1.382A3.966 3.966 0 008 4C5.794 4 4 5.794 4 8s1.794 4 4 4c1.05 0 2-.415 2.714-1.08A2.981 2.981 0 0013 12c1.682 0 3-1.374 3-3.129V8c0-4.411-3.589-8-8-8zm0 10c-1.103 0-2-.897-2-2s.897-2 2-2 2 .897 2 2-.897 2-2 2z"/></symbol><symbol viewBox="0 0 16 16" id="mod-win-dog" xmlns="http://www.w3.org/2000/svg"><path d="M8 0C3.589 0 0 3.589 0 8s3.589 8 8 8c1.407 0 2.79-.37 4.001-1.07L11 13.197A5.997 5.997 0 018 14c-3.309 0-6-2.691-6-6s2.691-6 6-6 6 2.691 6 6v.871C14 9.525 13.58 10 13 10c-.551 0-1-.449-1-1V5h-1.382A3.966 3.966 0 008 4C5.794 4 4 5.794 4 8s1.794 4 4 4c1.05 0 2-.415 2.714-1.08A2.981 2.981 0 0013 12c1.682 0 3-1.374 3-3.129V8c0-4.411-3.589-8-8-8zm0 10c-1.103 0-2-.897-2-2s.897-2 2-2 2 .897 2 2-.897 2-2 2z"/></symbol><symbol viewBox="0 0 18 18" id="mod-win-pdf" xmlns="http://www.w3.org/2000/svg"><path d="M4.49 7.348H3.376a.527.527 0 00-.527.529l.007 4.006a.527.527 0 001.055 0v-1.217l.58-.002c.927 0 1.681-.744 1.681-1.658 0-.914-.754-1.658-1.68-1.658zm0 2.262c-.135 0-.366 0-.583.002a146.834 146.834 0 01-.003-1.21h.587c.34 0 .626.277.626.604 0 .327-.287.604-.626.604zm4.486-2.262H7.875a.527.527 0 00-.527.528l.008 3.89a.528.528 0 00.527.525h.002c.033 0 .819-.003 1.133-.008 1.191-.021 2.056-1.057 2.056-2.464 0-1.478-.843-2.471-2.098-2.471zM9 11.228c-.136.003-.371.005-.59.006-.002-.458-.005-2.356-.006-2.832h.573c.968 0 1.044 1.085 1.044 1.418 0 .692-.316 1.396-1.02 1.408zm5.55-2.866a.527.527 0 000-1.055h-1.613a.527.527 0 00-.527.527v3.979a.527.527 0 001.055 0v-1.5h.957a.527.527 0 000-1.054h-.957v-.897h1.085z"/><path d="M16.102 5.098h-.387v-.15c0-.679-.257-1.323-.723-1.815l-2.19-2.31A2.648 2.648 0 0010.887 0h-7.02c-.873 0-1.583.71-1.583 1.582v3.516h-.387c-.872 0-1.582.71-1.582 1.582v6.328c0 .872.71 1.582 1.582 1.582h.387v1.828c0 .872.71 1.582 1.582 1.582h10.266c.872 0 1.582-.71 1.582-1.582V14.59h.387c.872 0 1.582-.71 1.582-1.582V6.68c0-.873-.71-1.582-1.582-1.582zM3.34 1.582c0-.29.236-.527.527-.527h7.02c.433 0 .851.18 1.149.493l2.19 2.31c.28.296.434.682.434 1.09v.15H3.34V1.582zm11.32 14.836c0 .29-.236.527-.527.527H3.867a.528.528 0 01-.527-.527V14.59h11.32v1.828zm1.969-3.41c0 .29-.237.527-.527.527H1.898a.528.528 0 01-.527-.527V6.68c0-.291.237-.528.527-.528h14.204c.29 0 .527.237.527.528v6.328z"/></symbol><symbol viewBox="0 0 16 16" id="mod-win-user" xmlns="http://www.w3.org/2000/svg"><g clip-path="url(#awclip0)"><path d="M7.885 7.707a3.73 3.73 0 002.725-1.129 3.729 3.729 0 001.129-2.725 3.73 3.73 0 00-1.13-2.724A3.73 3.73 0 007.886 0 3.73 3.73 0 005.16 1.129a3.729 3.729 0 00-1.129 2.724c0 1.06.38 1.976 1.13 2.725a3.73 3.73 0 002.724 1.13zm6.744 4.596a9.522 9.522 0 00-.13-1.01 7.975 7.975 0 00-.248-1.017 5.023 5.023 0 00-.418-.948 3.576 3.576 0 00-.63-.822 2.778 2.778 0 00-.905-.568c-.351-.14-.74-.21-1.156-.21-.163 0-.321.068-.626.266a83.46 83.46 0 01-.653.42c-.21.134-.493.26-.844.373-.342.11-.69.167-1.032.167a3.35 3.35 0 01-1.033-.167 3.73 3.73 0 01-.844-.372 89.76 89.76 0 01-.653-.42c-.305-.2-.463-.266-.626-.266-.416 0-.805.07-1.155.209-.352.14-.657.33-.906.569a3.58 3.58 0 00-.63.82 5.031 5.031 0 00-.417.949 7.95 7.95 0 00-.249 1.016 9.487 9.487 0 00-.13 1.011c-.02.307-.032.624-.032.945 0 .836.266 1.512.79 2.01.517.492 1.2.742 2.033.742h7.704c.832 0 1.516-.25 2.033-.742.524-.498.79-1.174.79-2.01 0-.322-.012-.64-.033-.945z"/></g><defs><clipPath id="awclip0"><path d="M0 0h16v16H0z"/></clipPath></defs></symbol><symbol viewBox="0 0 51 8" id="parners-slider-left" xmlns="http://www.w3.org/2000/svg"><path d="M.646 3.645a.5.5 0 000 .707l3.182 3.182a.5.5 0 10.708-.707L1.707 3.999 4.536 1.17a.5.5 0 10-.708-.707L.646 3.645zM51 3.499H1v1h50v-1z"/></symbol><symbol viewBox="0 0 51 8" id="parners-slider-right" xmlns="http://www.w3.org/2000/svg"><path d="M50.354 4.352a.5.5 0 000-.707L47.172.463a.5.5 0 10-.707.707L49.293 4l-2.828 2.828a.5.5 0 10.707.707l3.182-3.182zM0 4.5h50v-1H0v1z"/></symbol><symbol class="azsvg-inline--fa azfa-phone azfa-w-16" viewBox="0 0 512 512" id="phone" xmlns="http://www.w3.org/2000/svg"><path d="M493.4 24.6l-104-24c-11.3-2.6-22.9 3.3-27.5 13.9l-48 112c-4.2 9.8-1.4 21.3 6.9 28l60.6 49.6c-36 76.7-98.9 140.5-177.2 177.2l-49.6-60.6c-6.8-8.3-18.2-11.1-28-6.9l-112 48C3.9 366.5-2 378.1.6 389.4l24 104C27.1 504.2 36.7 512 48 512c256.1 0 464-207.5 464-464 0-11.2-7.7-20.9-18.6-23.4z"/></symbol><symbol viewBox="0 0 16 16" id="phone-modal" xmlns="http://www.w3.org/2000/svg"><path d="M14.716 10.502c-.98 0-1.941-.153-2.853-.454-.446-.153-.995-.013-1.268.267l-1.799 1.358C6.71 10.56 5.424 9.275 4.326 7.204l1.318-1.752c.343-.342.465-.842.318-1.31a9.098 9.098 0 01-.456-2.858C5.506.576 4.93 0 4.222 0H1.284C.576 0 0 .576 0 1.284 0 9.398 6.602 16 14.716 16c.708 0 1.284-.576 1.284-1.284v-2.93c0-.708-.576-1.284-1.284-1.284z"/></symbol><symbol viewBox="0 0 61 54" id="pipe-01" xmlns="http://www.w3.org/2000/svg"><path d="M30.002 26.469c-5.523 0-10 4.477-10 10s4.477 10 10 10 10-4.477 10-10c-.006-5.52-4.48-9.994-10-10zm0 18a8 8 0 118-8 8.01 8.01 0 01-8 8zm0-19a1 1 0 001-1v-1a1 1 0 00-2 0v1a1 1 0 001 1z"/><path d="M38.487 26.569l-.707.707a1 1 0 101.414 1.414l.707-.707a1 1 0 00-1.414-1.415zm4.515 8.899h-1a1 1 0 000 2h1a1 1 0 000-2zm-3.808 8.778a1 1 0 00-1.414 1.415l.708.707a1 1 0 001.415-1.414l-.709-.708zm-9.192 3.222a1 1 0 00-1 1v1a1 1 0 102 0v-1a1 1 0 00-1-1zm-9.192-3.222l-.706.708a1 1 0 101.414 1.415l.707-.708a1 1 0 00-1.414-1.413v-.002zm-2.808-8.778h-1a1 1 0 000 2h1a1 1 0 000-2zm2.809-6.778a1 1 0 001.414-1.413l-.707-.707a1 1 0 10-1.415 1.414l.708.707z"/><path d="M57.002 25.468a3 3 0 00-3 3v1h-8.526a17.08 17.08 0 00-8.474-8.473v-7.526a1 1 0 00-1-1h-2v-6h12a3 3 0 100-6h-32a3 3 0 000 6h12v6h-2a1 1 0 00-1 1v7.526a17.08 17.08 0 00-8.474 8.474H6.002v-1a3 3 0 00-6 0v16a3 3 0 106 0v-1h8.526c3.85 8.546 13.9 12.352 22.446 8.502a16.972 16.972 0 008.502-8.502h8.526v1a3 3 0 106 0v-16a3 3 0 00-3-3zm-44-22a1 1 0 011-1h32a1 1 0 110 2h-32a1 1 0 01-1-1zm15 3h4v6h-4v-6zm-3 8h10v5.754a16.982 16.982 0 00-10 0v-5.753zm-21 30a1 1 0 11-2 0v-16a1 1 0 112 0v16zm2-2.999v-10h7.753a16.982 16.982 0 000 10H6.002zm24 10c-8.284 0-15-6.716-15-15 0-8.285 6.716-15 15-15 8.284 0 15 6.715 15 15-.01 8.28-6.72 14.99-15 15zm16.247-10a16.982 16.982 0 000-10h7.753v10h-7.753zm11.753 3a1 1 0 11-2 0v-16a1 1 0 112 0v16z"/></symbol><symbol viewBox="0 0 61 60" id="pipe-02" xmlns="http://www.w3.org/2000/svg"><path d="M58.472 41.37h-8.174V27.923a.879.879 0 10-1.758 0V41.37H33.268v-3.81a.879.879 0 00-.88-.878h-8.825V15.73h9.982v3.616c0 .774.63 1.403 1.404 1.403h2.206c.773 0 1.403-.63 1.403-1.403V15.73h9.982v8.679a.879.879 0 101.758 0v-8.906c0-.844-.687-1.53-1.53-1.53h-18.5V1.552c0-.844-.686-1.53-1.53-1.53H12.596c-.844 0-1.53.686-1.53 1.53V7.11a.879.879 0 101.757 0V1.78h5.338v3.616c0 .774.63 1.404 1.403 1.404h2.206c.774 0 1.404-.63 1.404-1.404V1.781h5.337v12.191h-5.827a.879.879 0 00-.879.88v7.323h-8.982V10.624a.879.879 0 10-1.757 0v11.552H5.89c-.843 0-1.53.686-1.53 1.53v12.976H1.532c-.844 0-1.53.686-1.53 1.53V59.1c0 .485.393.879.879.879h9.306a.879.879 0 100-1.758H1.76V38.44h12.368v3.615c0 .774.63 1.404 1.404 1.404h2.206c.774 0 1.403-.63 1.403-1.404V38.44H31.51v19.78H13.7a.879.879 0 100 1.758h45.422a.879.879 0 00.879-.88V42.9c0-.844-.687-1.53-1.53-1.53zM21.416 5.041h-1.498V1.78h1.498v3.26zM36.8 15.73v3.261h-1.497v-3.26H36.8zm-23.587 8.203h1.497v3.262h-1.497v-3.262zm-7.095 0h5.337v3.616c0 .774.63 1.403 1.404 1.403h2.206c.774 0 1.403-.63 1.403-1.403v-3.616h5.337v12.749H6.118V23.933zm11.265 17.768h-1.497V38.44h1.497v3.26zm29.122 1.426v3.261h-1.498v-3.26h1.498zm11.74 15.093H33.267V43.127h9.981v3.616c0 .774.63 1.404 1.404 1.404h2.206c.774 0 1.404-.63 1.404-1.404v-3.616h9.981V58.22z"/></symbol><symbol viewBox="0 0 61 46" id="pipe-03" xmlns="http://www.w3.org/2000/svg"><path d="M6.428 29.17h7.481c.647 0 1.172-.525 1.172-1.172v-7.536c0-.647-.525-1.172-1.172-1.172H9.73c-.466 0-.887.275-1.074.702l-3.3 7.536a1.172 1.172 0 001.073 1.642zm4.067-7.536h2.242v5.192H8.22l2.275-5.192z"/><path d="M58.83.041H44.302a1.172 1.172 0 000 2.344h13.356V38.76H51.34c.008-.143.012-.287.012-.432 0-4.207-3.42-7.63-7.623-7.63s-7.623 3.423-7.623 7.63c0 .145.004.289.012.432H20.335V2.385H33.69a1.172 1.172 0 000-2.344H19.163c-.647 0-1.172.525-1.172 1.172V14.03H6.295c-.465 0-.886.275-1.073.701L.1 26.425a1.172 1.172 0 00-.098.47v13.038c0 .647.525 1.172 1.172 1.172h3.463c.508 2.758 2.93 4.854 5.83 4.854s5.321-2.096 5.83-4.854h20.33c1.112 2.838 3.876 4.854 7.101 4.854 3.226 0 5.99-2.016 7.101-4.854h8.001c.647 0 1.172-.525 1.172-1.172V1.213c0-.647-.525-1.172-1.172-1.172zm-56.484 27.1L7.06 16.375h10.93V38.76h-1.73c-.581-2.666-2.957-4.668-5.792-4.668s-5.211 2.002-5.792 4.668h-2.33V27.14zm8.12 16.474a3.59 3.59 0 01-3.583-3.589 3.59 3.59 0 013.584-3.589 3.59 3.59 0 013.584 3.59 3.59 3.59 0 01-3.584 3.588zm33.262 0a5.289 5.289 0 01-5.279-5.286 5.289 5.289 0 015.28-5.286 5.289 5.289 0 015.279 5.286 5.289 5.289 0 01-5.28 5.286z"/><path d="M37.935 1.661c.19.457.662.753 1.157.721a1.18 1.18 0 001.046-.828A1.181 1.181 0 0039.71.268a1.185 1.185 0 00-1.31-.05c-.482.298-.682.92-.465 1.443zm-9.382 14.902a1.172 1.172 0 000-2.344h-4.256c-.647 0-1.172.525-1.172 1.172v10.501a1.172 1.172 0 002.344 0v-4.178h2.746a1.172 1.172 0 000-2.344h-2.746v-2.807h3.084zm16.631.019a1.172 1.172 0 000-2.344h-4.416c-.648 0-1.172.525-1.172 1.172v10.483c0 .647.525 1.171 1.172 1.171h4.416a1.172 1.172 0 000-2.343H41.94v-2.898h2.919a1.172 1.172 0 000-2.343h-2.92v-2.898h3.245zm8.512 0a1.172 1.172 0 000-2.344h-4.417c-.647 0-1.172.525-1.172 1.172v10.483c0 .647.525 1.171 1.172 1.171h4.417a1.172 1.172 0 000-2.343h-3.245v-2.898h2.92a1.172 1.172 0 000-2.343h-2.92v-2.898h3.245zm-22.069-2.501h-.004c-.647 0-1.172.525-1.172 1.172v10.579a1.172 1.172 0 002.344 0v-3.393l3.668 4.167a1.17 1.17 0 001.654.105 1.172 1.172 0 00.105-1.653l-2.85-3.238c1.8-.408 3.142-1.965 3.142-3.817 0-2.163-1.828-3.922-4.076-3.922h-2.811zm4.544 3.921c0 .855-.794 1.578-1.733 1.578-.376 0-1.04.003-1.627.006a356.11 356.11 0 01-.005-1.584l-.004-1.577h1.636c.94 0 1.733.722 1.733 1.577z"/></symbol><symbol viewBox="0 0 58 60" id="pipe-04" xmlns="http://www.w3.org/2000/svg"><path d="M57.682 33.682a1 1 0 00-.383-.486l-5.993-3.995a.983.983 0 00-.87-.116l-17.981 5.993a.988.988 0 00-.383.25l-.008-.009-5.7 5.701h-6.58v1.998h6.993a.999.999 0 00.706-.293l4.288-4.288v19.565H7.797v-7.991H5.799V59a1 1 0 00.999 1H32.77a.982.982 0 00.316-.053l17.981-5.994a.999.999 0 00.683-.947V36.932l5.34-1.967a1 1 0 00.592-1.283zm-7.93 18.605L33.77 57.615v-19.18l3.29 3.29a.999.999 0 001.052.23l11.642-4.286v14.618zM38.02 39.862l-3.397-3.396 15.984-5.328 3.952 2.634-16.54 6.09z"/><path d="M11.79 54.006H9.794v1.998h1.998v-1.998zm3.997 0h-1.998v1.998h1.998v-1.998zm3.996 0h-1.998v1.998h1.998v-1.998zm17.979-3.996h-1.998v4.995h1.998v-4.994zm2.996-1.997H38.76v4.994h1.998v-4.994zM30.157 10.052c.207-.01.415-.01.622 0V8.056a8.699 8.699 0 00-8.998 8.99h1.997a6.693 6.693 0 016.38-6.993z"/><path d="M30.771 30.032c7.173 0 12.987-5.815 12.987-12.987S37.944 4.06 30.77 4.06c-7.172 0-12.986 5.814-12.986 12.986.008 7.169 5.818 12.978 12.986 12.986zm0-23.975c6.07 0 10.989 4.92 10.989 10.988 0 6.069-4.92 10.989-10.988 10.989-6.07 0-10.989-4.92-10.989-10.989.007-6.066 4.923-10.981 10.988-10.988z"/><path d="M15.786 38.437l.292.293a1 1 0 001.413 0l2.997-2.997a1 1 0 000-1.412l-1.292-1.292 1.984-1.982c7.75 5.313 18.339 3.338 23.652-4.411 5.313-7.75 3.338-18.34-4.411-23.652-7.75-5.314-18.34-3.339-23.652 4.41a17.013 17.013 0 000 19.242l-1.982 1.984-1.292-1.292a.999.999 0 00-1.412 0l-2.997 2.997a.999.999 0 000 1.412l.292.293-7.784 7.785a4.528 4.528 0 003.203 7.732 4.514 4.514 0 003.204-1.325l7.785-7.785zm0-21.391C15.795 8.774 22.498 2.07 30.77 2.062c8.275 0 14.984 6.708 14.984 14.984 0 8.275-6.709 14.984-14.984 14.984-8.276 0-14.984-6.709-14.984-14.984zm2.226 11.172a17.057 17.057 0 001.585 1.584l-1.814 1.815-1.584-1.585 1.813-1.814zm-5.223 1.229l1.288 1.288 2.997 2.997 1.295 1.295-1.584 1.584-5.58-5.58 1.584-1.584zM3.006 44.753a2.533 2.533 0 010-3.526l7.785-7.784 3.582 3.582-7.785 7.785a2.533 2.533 0 01-3.582-.057z"/></symbol><symbol viewBox="0 0 61 58" id="pipe-05" xmlns="http://www.w3.org/2000/svg"><path d="M37.033 7.906A7.04 7.04 0 0030.002.875a7.04 7.04 0 00-7.031 7.031 7.04 7.04 0 007.031 7.032 7.04 7.04 0 007.031-7.032zm-7.031 4.688a4.693 4.693 0 01-4.688-4.688 4.693 4.693 0 014.688-4.687 4.693 4.693 0 014.688 4.687 4.693 4.693 0 01-4.688 4.688z"/><path d="M40.549 30.172v-4.688c0-5.815-4.731-10.547-10.547-10.547-5.816 0-10.547 4.732-10.547 10.547v4.688c0 .647.525 1.172 1.172 1.172h18.75c.647 0 1.172-.525 1.172-1.172zM38.205 29H21.8v-3.516c0-4.523 3.68-8.203 8.203-8.203s8.203 3.68 8.203 8.203V29z"/><path d="M8.423 46.826l5.642 2.82v6.307c0 .647.524 1.172 1.171 1.172h12.422c.647 0 1.172-.525 1.172-1.172V41.044c0-3.724-2.748-6.937-6.257-7.315-.093-.017-4.529-.348-6.673-2.49l-3.209-3.21a4.656 4.656 0 00-3.314-1.373v-9.375a4.693 4.693 0 00-4.688-4.687A4.693 4.693 0 00.002 17.28V33.2a15.236 15.236 0 008.42 13.626zM2.346 17.28a2.346 2.346 0 012.343-2.343 2.346 2.346 0 012.344 2.343v10.004a4.697 4.697 0 00-2.344 4.059c0 1.251.488 2.428 1.374 3.314l6 6.002a1.172 1.172 0 001.658-1.657l-6-6.002a2.327 2.327 0 01-.688-1.657c0-.992.628-1.88 1.563-2.21v-.001a2.34 2.34 0 012.438.554l3.209 3.209c2.185 2.184 5.37 2.798 8.066 3.162l.014.002c2.334.25 4.163 2.44 4.163 4.984V54.78H16.408v-5.86c0-.443-.25-.849-.648-1.047L9.471 44.73A12.821 12.821 0 012.346 33.2V17.281zm51.445 27.892a1.172 1.172 0 100-2.344 1.172 1.172 0 000 2.344z"/><path d="M55.315 12.594a4.693 4.693 0 00-4.688 4.687v9.375a4.656 4.656 0 00-3.314 1.374l-3.209 3.208c-1.87 1.869-4.904 2.18-6.673 2.492-3.509.377-6.257 3.59-6.257 7.315v14.908c0 .647.525 1.172 1.172 1.172h12.422c.647 0 1.172-.525 1.172-1.172v-6.307l3.835-1.917a1.172 1.172 0 00-1.048-2.097l-4.483 2.242a1.173 1.173 0 00-.648 1.048v5.86H33.518V41.044c0-2.545 1.828-4.734 4.163-4.985l.013-.002c2.738-.37 5.884-.98 8.067-3.163l3.209-3.208c.67-.67 1.63-.84 2.437-.554h.001a2.347 2.347 0 011.563 2.21A2.33 2.33 0 0152.284 33l-6.001 6.002a1.172 1.172 0 001.657 1.657l6.001-6.002a4.657 4.657 0 001.373-3.314 4.697 4.697 0 00-2.343-4.06V17.282a2.346 2.346 0 012.344-2.343 2.346 2.346 0 012.343 2.343V33.2c0 2.144-.54 4.273-1.565 6.156a1.172 1.172 0 102.06 1.12 15.276 15.276 0 001.849-7.276V17.281a4.693 4.693 0 00-4.688-4.687z"/></symbol><symbol viewBox="0 0 61 60" id="pipe-06" xmlns="http://www.w3.org/2000/svg"><g clip-path="url(#bgclip0)"><path d="M37.661 7.476A17.05 17.05 0 0017.88 10.65c-6.081 6.082-6.69 15.778-1.416 22.556a.944.944 0 001.327.165.946.946 0 00.166-1.327c-4.69-6.026-4.148-14.648 1.26-20.057A15.161 15.161 0 0136.81 9.164a.945.945 0 10.852-1.688zm7.549 7.552a.946.946 0 00-1.688.852A15.162 15.162 0 0140.7 33.47c-5.409 5.408-14.031 5.95-20.057 1.26a.946.946 0 00-1.162 1.493 16.992 16.992 0 0010.461 3.584c4.4 0 8.784-1.689 12.095-5a17.05 17.05 0 003.174-19.779zm-2.443-3.601a17.41 17.41 0 00-1.51-1.51.945.945 0 10-1.252 1.417 15.476 15.476 0 011.345 1.345.943.943 0 001.334.082.945.945 0 00.083-1.334z"/><path d="M52.276 24.423c.63-1.035.63-2.32 0-3.354l-1.245-2.04a1.33 1.33 0 01-.178-.898l.371-2.356a3.207 3.207 0 00-1.287-3.106l-1.928-1.402a1.332 1.332 0 01-.51-.762l-.562-2.32a3.208 3.208 0 00-2.372-2.373l-2.32-.562a1.33 1.33 0 01-.763-.51L40.08 2.812a3.207 3.207 0 00-3.105-1.287l-2.357.37c-.31.05-.63-.014-.899-.178L31.68.473a3.208 3.208 0 00-3.353 0l-2.04 1.244a1.331 1.331 0 01-.9.178l-2.355-.37a3.207 3.207 0 00-3.105 1.286L18.523 4.74a1.332 1.332 0 01-.762.51l-2.32.562a3.208 3.208 0 00-2.373 2.372l-.562 2.32a1.33 1.33 0 01-.51.763l-1.929 1.403a3.207 3.207 0 00-1.287 3.105l.371 2.357c.049.31-.014.63-.178.898l-1.244 2.04a3.209 3.209 0 000 3.354l1.244 2.04c.164.269.227.588.178.899l-.37 2.356a3.207 3.207 0 001.286 3.105l1.928 1.402c.255.185.436.456.51.763l.562 2.32a3.208 3.208 0 002.372 2.373l.97.234L9.85 54.542a.945.945 0 00.975 1.325l5.276-.63 3.04 4.358a.946.946 0 001.638-.154l6.697-14.939.848.517a3.215 3.215 0 003.354 0l.879-.536 6.705 14.958a.945.945 0 001.638.154l3.04-4.358 5.276.63a.946.946 0 00.975-1.325l-6.56-14.635.932-.225a3.208 3.208 0 002.373-2.373l.561-2.32a1.33 1.33 0 01.51-.763l1.929-1.402a3.207 3.207 0 001.287-3.105l-.37-2.357a1.33 1.33 0 01.177-.899l1.245-2.04zm-32.539 32.72L17.33 53.69a.945.945 0 00-.888-.398l-4.181.5 5.974-13.327c.11.08.207.176.288.287l1.402 1.929c.134.183.283.349.447.497l-3.145 7.014a.946.946 0 001.726.774l3.133-6.99c.308.043.626.042.944-.008l2.357-.371c.141-.022.284-.02.423.003l-6.072 13.544zm28.046-3.352l-4.18-.5a.945.945 0 00-.889.399l-2.408 3.454-6.074-13.55a1.35 1.35 0 01.386.003l2.356.371c.331.052.662.05.982.003l3.135 6.995a.946.946 0 101.726-.773L39.66 43.15c.153-.141.293-.297.419-.47l1.402-1.928c.088-.121.197-.225.318-.31l5.984 13.348zm2.878-30.353l-1.244 2.04a3.225 3.225 0 00-.432 2.178l.37 2.356c.079.496-.125.987-.53 1.282l-1.929 1.403a3.224 3.224 0 00-1.236 1.847l-.561 2.32a1.325 1.325 0 01-.98.98l-2.32.561a3.224 3.224 0 00-1.847 1.236l-1.403 1.928a1.322 1.322 0 01-1.282.53l-2.355-.37a3.225 3.225 0 00-2.178.432l-2.04 1.244c-.427.26-.957.26-1.384 0l-2.04-1.244a3.224 3.224 0 00-2.178-.432l-2.356.37a1.324 1.324 0 01-1.282-.53L20.05 39.64a3.223 3.223 0 00-1.847-1.236l-2.32-.561a1.324 1.324 0 01-.98-.98l-.561-2.32a3.223 3.223 0 00-1.236-1.847l-1.928-1.402a1.324 1.324 0 01-.53-1.282l.37-2.356a3.224 3.224 0 00-.432-2.178l-1.244-2.04a1.325 1.325 0 010-1.384l1.245-2.04c.396-.651.55-1.424.431-2.178l-.37-2.356a1.324 1.324 0 01.53-1.282l1.93-1.403a3.224 3.224 0 001.235-1.847l.562-2.32c.117-.486.492-.862.98-.98l2.32-.56a3.224 3.224 0 001.846-1.237l1.403-1.928a1.322 1.322 0 011.282-.53l2.356.37a3.223 3.223 0 002.177-.432l2.04-1.244c.427-.26.957-.26 1.384 0l2.04 1.244c.651.397 1.425.55 2.178.432l2.356-.37c.496-.078.987.125 1.282.53l1.403 1.929A3.224 3.224 0 0041.8 7.088l2.32.561c.486.118.862.493.98.98l.561 2.32c.18.742.618 1.398 1.236 1.847l1.928 1.403c.405.295.61.786.531 1.281l-.37 2.356a3.224 3.224 0 00.43 2.178l1.245 2.04c.26.427.26.957 0 1.384z"/><path d="M41.069 19.804a1.692 1.692 0 00-1.424-1.168l-5.69-.675-2.4-5.203a1.692 1.692 0 00-1.551-.993c-.675 0-1.27.38-1.552.993l-2.4 5.203-5.69.675a1.692 1.692 0 00-1.423 1.169 1.692 1.692 0 00.465 1.782l4.206 3.89-1.116 5.62a1.692 1.692 0 00.672 1.714 1.7 1.7 0 001.002.33c.285 0 .572-.073.836-.221l5-2.798 5 2.798a1.69 1.69 0 001.838-.108 1.692 1.692 0 00.672-1.716l-1.117-5.62 4.206-3.89c.496-.457.674-1.14.465-1.782zm-6.344 4.644a.946.946 0 00-.286.878l1.143 5.75-5.117-2.863a.944.944 0 00-.923 0l-5.116 2.864 1.142-5.75a.945.945 0 00-.285-.88l-4.305-3.98 5.823-.69a.946.946 0 00.747-.543l2.456-5.324 2.455 5.324a.945.945 0 00.748.542l5.822.69-4.304 3.982z"/></g><defs><clipPath id="bgclip0"><path transform="translate(.002)" d="M0 0h60v60H0z"/></clipPath></defs></symbol><symbol viewBox="0 0 16 16" id="user" xmlns="http://www.w3.org/2000/svg"><g clip-path="url(#bhclip0)"><path d="M7.885 7.707a3.73 3.73 0 002.725-1.129 3.729 3.729 0 001.129-2.725 3.73 3.73 0 00-1.13-2.724A3.73 3.73 0 007.886 0 3.73 3.73 0 005.16 1.129a3.729 3.729 0 00-1.129 2.724c0 1.06.38 1.976 1.13 2.725a3.73 3.73 0 002.724 1.13zm6.744 4.596a9.526 9.526 0 00-.13-1.01 7.979 7.979 0 00-.248-1.017 5.024 5.024 0 00-.418-.948 3.576 3.576 0 00-.63-.821 2.778 2.778 0 00-.905-.57 3.147 3.147 0 00-1.156-.208c-.163 0-.321.067-.626.265-.188.123-.408.264-.653.421-.21.134-.493.259-.844.372-.342.11-.69.167-1.032.167a3.35 3.35 0 01-1.033-.167 3.73 3.73 0 01-.844-.372 89.424 89.424 0 01-.653-.42c-.305-.2-.463-.266-.626-.266-.416 0-.805.07-1.155.209-.352.14-.657.33-.906.569a3.58 3.58 0 00-.63.82 5.03 5.03 0 00-.417.949c-.1.313-.184.654-.249 1.016a9.489 9.489 0 00-.13 1.012c-.02.306-.032.623-.032.944 0 .836.266 1.512.79 2.01.517.493 1.2.742 2.033.742h7.704c.832 0 1.516-.25 2.033-.742.524-.498.79-1.174.79-2.01 0-.322-.012-.64-.033-.945z"/></g><defs><clipPath id="bhclip0"><path d="M0 0h16v16H0z"/></clipPath></defs></symbol></svg>