<?xml version="1.0" encoding="utf-8"?><svg xmlns="http://www.w3.org/2000/svg" xmlns:xlink="http://www.w3.org/1999/xlink"><symbol viewBox="0 0 51 8" id="arrow-l" xmlns="http://www.w3.org/2000/svg"/><symbol viewBox="0 0 51 8" id="arrow-r" xmlns="http://www.w3.org/2000/svg"/><symbol viewBox="0 0 344.96 344.96" id="check" xmlns="http://www.w3.org/2000/svg"><g data-name="Слой 2"><path d="M321.85 86.24l-40-23.11-23.1-40H212.5L172.48 0l-40 23.11H86.24l-23.11 40-40 23.1v46.21L0 172.48l23.11 40v46.21l40 23.11 23.11 40h46.21l40 23.1 40-23.11h46.21l23.11-40 40-23.11V212.5l23.11-40-23.11-40V86.24zM156.91 243.07a16.79 16.79 0 01-23.34 0l-50.45-50.44a16.19 16.19 0 010-22.89l13.35-13.35a16.19 16.19 0 0122.89 0l25.87 25.87 80.34-80.35a16.19 16.19 0 0122.89 0l13.35 13.35a16.19 16.19 0 010 22.89z" data-name="Capa 1"/></g></symbol><symbol viewBox="0 0 40 40" id="clock" xmlns="http://www.w3.org/2000/svg"><path d="M40 20c0 11.028-8.972 20-20 20S0 31.028 0 20 8.972 0 20 0s20 8.972 20 20zm-2.344 0c0-9.736-7.92-17.656-17.656-17.656-9.736 0-17.656 7.92-17.656 17.656 0 9.736 7.92 17.656 17.656 17.656 9.736 0 17.656-7.92 17.656-17.656z"/><path d="M35.315 20.003c0 8.443-6.87 15.312-15.313 15.312-8.443 0-15.312-6.87-15.312-15.313 0-8.443 6.87-15.312 15.312-15.312 8.444 0 15.313 6.87 15.313 15.312zm-2.344 0c0-7.152-5.817-12.97-12.968-12.97-7.152 0-12.97 5.818-12.97 12.97 0 7.15 5.818 12.968 12.97 12.968 7.15 0 12.968-5.817 12.968-12.968z"/><path d="M28.346 13.317l-1.658-1.657-6.684 6.684-6.657-6.656-1.657 1.657 6.657 6.657-1.658 1.657 1.658 1.657 1.657-1.657 1.657 1.657 1.658-1.657-1.658-1.657z"/><path d="M18.83 9.38h2.344v2.344H18.83zm0 18.9h2.344v2.344H18.83zm-9.45-9.45h2.344v2.344H9.38zm18.9 0h2.344v2.344H28.28z"/></symbol></svg>