<?xml version="1.0" encoding="utf-8"?><svg xmlns="http://www.w3.org/2000/svg" xmlns:xlink="http://www.w3.org/1999/xlink"><symbol viewBox="0 0 51 8" id="arrow-l" xmlns="http://www.w3.org/2000/svg"/><symbol viewBox="0 0 51 8" id="arrow-r" xmlns="http://www.w3.org/2000/svg"/><symbol viewBox="0 0 40 40" id="brend-biceps" xmlns="http://www.w3.org/2000/svg"><path d="M39.495 16.42a1.172 1.172 0 00-1.075-.14l-2.49.918c-1.682-1.197-3.79-1.849-6.01-1.849-3.07 0-5.928 1.277-7.669 3.378-1.354-.878-2.977-1.194-4.616-.869a6.48 6.48 0 00-3.02 1.485c-.524-3.054 1.214-5.921 3.535-9.2 1.044-.553 2.369-.52 3.766-.484.85.021 1.73.043 2.581-.072a3.673 3.673 0 002.941-2.234 3.673 3.673 0 00-.4-3.672l-1.595-2.216A3.499 3.499 0 0021.737.106c-4.175 1.044-7.896 2.952-11.06 5.674-2.59 2.23-4.81 5.004-6.596 8.244C.871 19.851.04 25.368.001 26.841a1.17 1.17 0 00.016.227c.45 2.648 2.404 5.052 5.503 6.77 2.952 1.635 6.747 2.536 10.686 2.536 3.849 0 7.513-.846 10.427-2.396l6.329 5.715c.215.194.494.301.784.302l5.078.005a1.172 1.172 0 001.173-1.172V17.38a1.17 1.17 0 00-.502-.96z"/></symbol><symbol viewBox="0 0 40 40" id="brend-certificat" xmlns="http://www.w3.org/2000/svg"><g clip-path="url(#adclip0)"><path d="M24.036 29.856a4.683 4.683 0 01-1.602-.282l-2.42-.878-2.42.883a4.685 4.685 0 01-1.61.285 4.703 4.703 0 01-4.058-2.343l-.016-.027.008 10.16a2.34 2.34 0 001.258 2.078 2.345 2.345 0 002.425-.152l4.37-3.033 4.369 3.033c.72.5 1.649.558 2.425.152a2.339 2.339 0 001.258-2.078v-10.02a4.703 4.703 0 01-3.987 2.222z"/><path d="M33.091 10.26l-2.629-2.2-.598-3.376a2.342 2.342 0 00-2.31-1.936h-.002l-3.428.003L21.495.548a2.342 2.342 0 00-3.015.003l-2.625 2.206-3.428.004a2.342 2.342 0 00-2.308 1.94l-.593 3.377-2.624 2.207a2.342 2.342 0 00-.521 2.97l1.717 2.967-.592 3.377a2.342 2.342 0 001.51 2.61l3.223 1.17 1.717 2.968a2.342 2.342 0 002.834 1.028l3.221-1.175 3.223 1.17a2.342 2.342 0 002.832-1.034l1.712-2.971L31 22.189a2.342 2.342 0 001.505-2.613l-.598-3.376 1.711-2.97a2.342 2.342 0 00-.526-2.97zM19.998 20.819a6.77 6.77 0 01-6.763-6.763 6.77 6.77 0 016.763-6.762 6.77 6.77 0 016.762 6.763 6.77 6.77 0 01-6.762 6.762z"/><path d="M24.088 15.749a4.418 4.418 0 10-8.162-3.384 4.418 4.418 0 008.162 3.384z"/></g><defs><clipPath id="adclip0"><path d="M0 0h40v40H0z"/></clipPath></defs></symbol><symbol viewBox="0 0 40 40" id="brend-rtiangle" xmlns="http://www.w3.org/2000/svg"><g clip-path="url(#aeclip0)"><path d="M25.86 29.453H14.14c-.647 0-1.171.525-1.171 1.172v2.344c0 .647.524 1.172 1.172 1.172h11.718c.648 0 1.172-.525 1.172-1.172v-2.344c0-.647-.524-1.172-1.172-1.172zM14.772 4.83l-1.657-1.658a1.172 1.172 0 00-1.657 0L3.17 11.46a1.172 1.172 0 000 1.657l1.658 1.657a1.17 1.17 0 001.657 0l8.286-8.286a1.17 1.17 0 000-1.657zM28.54 3.172a1.172 1.172 0 00-1.657 0L25.226 4.83a1.172 1.172 0 000 1.657l8.287 8.286a1.17 1.17 0 001.657 0l1.657-1.657a1.17 1.17 0 000-1.657l-8.286-8.287zM15.313 38.828c0 .647.524 1.172 1.171 1.172h7.032c.647 0 1.172-.525 1.172-1.172v-2.344h-9.375v2.344zM6.972.343a1.172 1.172 0 00-1.657 0L.343 5.315a1.172 1.172 0 000 1.657l2 2 6.63-6.629-2-2zm32.683 4.972L34.683.343a1.172 1.172 0 00-1.657 0l-2 2 6.628 6.63 2.001-2.001a1.17 1.17 0 000-1.657zM20.002 13.37l-4.398-4.397-6.63 6.629 6.34 6.34v5.167h9.375v-5.168l6.34-6.34-6.63-6.628-4.397 4.398z"/></g><defs><clipPath id="aeclip0"><path d="M0 0h40v40H0z"/></clipPath></defs></symbol><symbol viewBox="0 0 344.96 344.96" id="check" xmlns="http://www.w3.org/2000/svg"><g data-name="Слой 2"><path d="M321.85 86.24l-40-23.11-23.1-40H212.5L172.48 0l-40 23.11H86.24l-23.11 40-40 23.1v46.21L0 172.48l23.11 40v46.21l40 23.11 23.11 40h46.21l40 23.1 40-23.11h46.21l23.11-40 40-23.11V212.5l23.11-40-23.11-40V86.24zM156.91 243.07a16.79 16.79 0 01-23.34 0l-50.45-50.44a16.19 16.19 0 010-22.89l13.35-13.35a16.19 16.19 0 0122.89 0l25.87 25.87 80.34-80.35a16.19 16.19 0 0122.89 0l13.35 13.35a16.19 16.19 0 010 22.89z" data-name="Capa 1"/></g></symbol><symbol viewBox="0 0 40 40" id="clock" xmlns="http://www.w3.org/2000/svg"><path d="M40 20c0 11.028-8.972 20-20 20S0 31.028 0 20 8.972 0 20 0s20 8.972 20 20zm-2.344 0c0-9.736-7.92-17.656-17.656-17.656-9.736 0-17.656 7.92-17.656 17.656 0 9.736 7.92 17.656 17.656 17.656 9.736 0 17.656-7.92 17.656-17.656z"/><path d="M35.315 20.003c0 8.443-6.87 15.312-15.313 15.312-8.443 0-15.312-6.87-15.312-15.313 0-8.443 6.87-15.312 15.312-15.312 8.444 0 15.313 6.87 15.313 15.312zm-2.344 0c0-7.152-5.817-12.97-12.968-12.97-7.152 0-12.97 5.818-12.97 12.97 0 7.15 5.818 12.968 12.97 12.968 7.15 0 12.968-5.817 12.968-12.968z"/><path d="M28.346 13.317l-1.658-1.657-6.684 6.684-6.657-6.656-1.657 1.657 6.657 6.657-1.658 1.657 1.658 1.657 1.657-1.657 1.657 1.657 1.658-1.657-1.658-1.657z"/><path d="M18.83 9.38h2.344v2.344H18.83zm0 18.9h2.344v2.344H18.83zm-9.45-9.45h2.344v2.344H9.38zm18.9 0h2.344v2.344H28.28z"/></symbol><symbol viewBox="0 0 26 26" id="comparation_analog" xmlns="http://www.w3.org/2000/svg"><path d="M13 0C5.832 0 0 5.832 0 13s5.832 13 13 13 13-5.832 13-13S20.168 0 13 0zm6.784 16.11H6.216a.848.848 0 010-1.697h13.568a.848.848 0 010 1.696zm0-5.089H6.216a.848.848 0 010-1.696h13.568a.848.848 0 010 1.696z"/></symbol><symbol viewBox="0 0 20 20" id="comparation_cartwheel" xmlns="http://www.w3.org/2000/svg"><g clip-path="url(#aiclip0)"><path d="M18.121 6.636c-.358-.862.03-2.627-1.05-3.708-1.079-1.078-2.847-.692-3.707-1.05C12.564 1.549 11.557 0 10 0 8.442 0 7.437 1.547 6.636 1.88c-.862.357-2.627-.031-3.708 1.049-1.078 1.079-.692 2.847-1.05 3.707C1.549 7.436 0 8.443 0 10c0 1.558 1.547 2.563 1.88 3.364.357.862-.031 2.627 1.049 3.708 1.08 1.078 2.846.692 3.708 1.05C7.43 18.448 8.443 20 10 20c1.558 0 2.563-1.547 3.364-1.879.862-.358 2.626.03 3.708-1.05 1.078-1.079.692-2.847 1.05-3.707.33-.8 1.878-1.806 1.878-3.364 0-1.558-1.547-2.563-1.879-3.364zM10 14.546A4.55 4.55 0 015.455 10 4.55 4.55 0 0110 5.455 4.55 4.55 0 0114.546 10 4.55 4.55 0 0110 14.546z"/></g><defs><clipPath id="aiclip0"><path d="M0 0h20v20H0z"/></clipPath></defs></symbol><symbol viewBox="0 0 15 14" id="comparation_check" xmlns="http://www.w3.org/2000/svg"><path d="M6.957 13.91L.811 9.122l1.747-2.243 3.775 2.94L12.563.83 14.9 2.45 6.957 13.91z"/></symbol><symbol viewBox="0 0 20 20" id="comparation_coins" xmlns="http://www.w3.org/2000/svg"><g clip-path="url(#akclip0)"><path d="M4.313 9.537a1.99 1.99 0 100 3.979 1.99 1.99 0 000-3.979zm9.497-5.846c-.882-.268-2.097-.419-3.33-.419-1.245 0-2.417.151-3.29.42-.826.254-1.116.544-1.116.635.005.004.009.009.009.013.021.095.285.393 1.215.662.86.25 1.993.389 3.187.389 1.232 0 2.447-.156 3.325-.42.942-.285 1.146-.58 1.146-.64 0-.06-.204-.354-1.146-.64zm.253 2.098c-.968.294-2.235.454-3.571.454-1.276 0-2.49-.147-3.43-.42a4.79 4.79 0 01-.933-.359l.03 1.22c.484.181.943.44 1.35.765.008.004.02.004.034.009.83.211 1.876.324 2.944.324 1.233 0 2.448-.151 3.325-.42.939-.285 1.142-.583 1.142-.64 0-.086.022-.168.07-.242V5.4a4.26 4.26 0 01-.96.389zm-3.759 7.804a.442.442 0 010-.152 16.599 16.599 0 01-1.163-.056c-.2.515-.48.995-.83 1.423.67.112 1.34.168 2.01.177l-.017-1.392z"/><path d="M8.533 10.657a4.304 4.304 0 00-1.418-2.4 4.21 4.21 0 00-1.53-.851 4.318 4.318 0 00-4.177.934 4.312 4.312 0 00-.286 6.088 4.308 4.308 0 006.088.285 4.277 4.277 0 001.41-3.187c0-.29-.03-.583-.087-.869zm-4.22 3.719a2.854 2.854 0 010-5.708 2.862 2.862 0 012.854 2.854 2.857 2.857 0 01-2.854 2.854zm5.98-1.803l-.018-1.44c-.008-.03-.017-.06-.021-.091a15.308 15.308 0 01-.791-.03 5.315 5.315 0 01-.078 1.522c.29.021.596.034.908.039zm8.53-2.335c-.878-.268-2.089-.41-3.325-.41h-.035c-1.159 0-2.261.129-3.109.367-.843.233-1.167.497-1.24.631a.37.37 0 01.02.117c.105.147.455.402 1.268.622.847.23 1.95.36 3.096.36 1.232 0 2.404-.144 3.29-.407.96-.286 1.172-.584 1.176-.649v-.004c-.013-.074-.233-.35-1.141-.627zm.234 4.497c-.969.294-2.223.454-3.559.454-1.18 0-2.326-.13-3.234-.368-.372-.09-.73-.22-1.076-.389l.012.977.005.264v.009c0 .095.277.38 1.102.635.87.264 2.033.411 3.282.411 1.245 0 2.413-.151 3.295-.424.921-.285 1.111-.583 1.111-.644v-1.319c-.26.169-.622.299-.938.394zm-.029-2.387c-.964.285-2.214.44-3.528.44-1.609 0-3.325-.242-4.346-.773l.018 1.366c.371.415 1.971.938 4.323.938 1.254 0 2.43-.147 3.317-.415.93-.285 1.128-.58 1.128-.64 0-.086.057-.164.061-.229v-1.08a4.728 4.728 0 01-.973.393zm-4.972-4.151c-.969.294-2.236.454-3.572.454-.653 0-1.31-.043-1.959-.125.346.488.61 1.033.77 1.608.372.03.77.048 1.19.048h.034c.302-.337.834-.614 1.595-.83.809-.23 1.825-.368 2.906-.398V7.799a4.578 4.578 0 01-.964.398z"/></g><defs><clipPath id="akclip0"><path d="M0 0h20v20H0z"/></clipPath></defs></symbol><symbol viewBox="0 0 20 20" id="comparation_diamond" xmlns="http://www.w3.org/2000/svg"><g clip-path="url(#alclip0)"><path d="M9.483 16.334l-6.223-8h4.15l2.073 8zm2.222-4.57a.334.334 0 00-.647-.167l-1.056 4.077-1.9-7.34h3.8l-.41 1.583a.334.334 0 10.646.167l.454-1.75h4.15l-6.224 8 1.187-4.57zM1.333 10.333h-1a.333.333 0 010-.667h1a.333.333 0 110 .667zm18.334 0h-1a.333.333 0 010-.667h1a.333.333 0 110 .667zM10.001 20a.333.333 0 01-.333-.333v-1a.333.333 0 11.667 0v1c0 .184-.15.333-.334.333zm0-18.333a.333.333 0 01-.333-.334v-1a.333.333 0 11.667 0v1c0 .184-.15.334-.334.334zM3.165 17.169a.333.333 0 01-.236-.57l.707-.706a.333.333 0 01.472.471l-.708.707a.334.334 0 01-.235.098zM16.126 4.205a.333.333 0 01-.235-.57l.707-.706a.333.333 0 11.47.47l-.706.708a.333.333 0 01-.236.098zm.709 12.964a.333.333 0 01-.236-.098l-.707-.707a.333.333 0 01.472-.471l.707.707a.334.334 0 01-.236.57v-.001zM3.873 4.205a.333.333 0 01-.236-.098L2.93 3.4a.333.333 0 11.47-.471l.708.707a.333.333 0 01-.236.569zM7.06 7.667H3.213l1.923-3.023L7.06 7.667zm2.547-3.334L7.667 7.38l-1.94-3.047h3.88zm2.115 3.333H8.275L10 4.953l1.723 2.713zm2.551-3.333l-1.94 3.047-1.94-3.047h3.88zm2.513 3.334H12.94l1.924-3.023 1.923 3.023z"/></g><defs><clipPath id="alclip0"><path d="M0 0h20v20H0z"/></clipPath></defs></symbol><symbol viewBox="0 0 20 20" id="comparation_refresh" xmlns="http://www.w3.org/2000/svg"><path d="M17.143 0a.714.714 0 00-.714.714v2.61A9.268 9.268 0 00.715 10a.714.714 0 101.428 0 7.857 7.857 0 0113.653-5.304l-3.164 1.055a.715.715 0 00.451 1.357L17.37 5.68a.714.714 0 00.489-.68V.714A.714.714 0 0017.143 0zm1.428 9.286a.714.714 0 00-.714.714 7.857 7.857 0 01-13.653 5.303l3.164-1.055a.715.715 0 10-.451-1.357L2.63 14.32a.714.714 0 00-.488.68v4.286a.714.714 0 101.428 0v-2.61A9.268 9.268 0 0019.285 10a.714.714 0 00-.714-.714z"/></symbol><symbol viewBox="0 0 20 20" id="comparation_sandClock" xmlns="http://www.w3.org/2000/svg"><g clip-path="url(#anclip0)"><path d="M9.545 9.544a.454.454 0 10.909 0c0-.532.19-1.049.532-1.455.763-.905 1.335-1.886 1.697-2.916a.455.455 0 00-.428-.605H7.744a.455.455 0 00-.43.605A9.355 9.355 0 009.013 8.09c.343.406.533.924.533 1.455zm.909 1.822a.454.454 0 00-.909 0c0 .656-.392 1.305-1.103 1.831-1.52 1.123-2.659 2.343-3.383 3.626a.453.453 0 00.396.677h9.09a.454.454 0 00.396-.677c-.723-1.283-1.862-2.503-3.382-3.626-.712-.526-1.104-1.175-1.105-1.831z"/><path d="M17.954 18.182h-.272c-.312-3.537-2.384-6.253-3.994-8.182 1.61-1.928 3.681-4.644 3.995-8.182h.272a.91.91 0 000-1.818H2.045a.909.909 0 000 1.818h.273C2.63 5.356 4.7 8.072 6.31 10c-1.61 1.929-3.68 4.644-3.994 8.182h-.271a.908.908 0 100 1.818h15.91a.91.91 0 10-.001-1.818zm-13.814 0c.341-3.196 2.42-5.657 3.972-7.496l.083-.099a.908.908 0 000-1.172l-.083-.098c-1.552-1.84-3.63-4.3-3.972-7.497h11.72c-.341 3.196-2.42 5.658-3.972 7.497l-.083.098a.908.908 0 000 1.172l.083.099c1.553 1.839 3.63 4.3 3.972 7.496H4.14z"/></g><defs><clipPath id="anclip0"><path d="M0 0h20v20H0z"/></clipPath></defs></symbol><symbol viewBox="0 0 22 22" id="comparation_worth" xmlns="http://www.w3.org/2000/svg"><path d="M15.122 17.133l2.01-2.01L6.876 4.863l-2.01 2.01 10.257 10.259z"/><path d="M6.875 17.135L17.133 6.877l-2.01-2.01L4.864 15.125l2.01 2.01z"/></symbol><symbol viewBox="0 0 22 23" id="contacts_location" xmlns="http://www.w3.org/2000/svg"><circle cx="11" cy="11.998" r="11"/><g clip-path="url(#apclip0)"><path d="M11 5.999a4.505 4.505 0 00-4.5 4.5c0 3.32 4.152 7.265 4.329 7.432a.25.25 0 00.342 0c.177-.167 4.329-4.113 4.329-7.433 0-2.48-2.019-4.5-4.5-4.5zm0 7a2.503 2.503 0 01-2.5-2.5c0-1.379 1.122-2.5 2.5-2.5s2.5 1.121 2.5 2.5c0 1.378-1.122 2.5-2.5 2.5z"/></g><defs><clipPath id="apclip0"><path transform="translate(5 5.999)" d="M0 0h12v12H0z"/></clipPath></defs></symbol><symbol viewBox="0 0 22 23" id="contacts_mail" xmlns="http://www.w3.org/2000/svg"><g clip-path="url(#aqclip0)"><path d="M11.002.999c-6.075 0-11 4.925-11 11 0 6.074 4.925 11 11 11s11-4.926 11-11c0-6.076-4.925-11-11-11zm0 3.863l6.51 4.06H4.491l6.51-4.06zm6.59 10.541a1.18 1.18 0 01-1.179 1.179H5.591a1.179 1.179 0 01-1.179-1.179V9.18c0-.07.007-.136.019-.202l6.219 3.878.024.012a.74.74 0 00.16.066l.014.004a.664.664 0 00.308 0l.015-.004a.664.664 0 00.16-.066l.024-.012 6.219-3.878c.011.066.018.133.018.202v6.223z"/></g><defs><clipPath id="aqclip0"><path transform="translate(0 .999)" d="M0 0h22v22H0z"/></clipPath></defs></symbol><symbol viewBox="0 0 22 23" id="contacts_phone" xmlns="http://www.w3.org/2000/svg"><g clip-path="url(#arclip0)"><path d="M18.777 4.219C14.481-.076 7.516-.075 3.221 4.22c-4.295 4.297-4.294 11.261.002 15.556 4.296 4.296 11.261 4.294 15.556-.002a11 11 0 00-.002-15.556zM16.659 16.32l-.001.001v-.003l-.558.553c-.72.73-1.77 1.03-2.768.792a9.747 9.747 0 01-2.83-1.268 13.077 13.077 0 01-2.234-1.8A13.181 13.181 0 016.6 12.57a10.264 10.264 0 01-1.254-2.537 2.933 2.933 0 01.733-2.996l.653-.652a.466.466 0 01.659-.002l.001.002 2.06 2.06a.466.466 0 010 .66l-1.21 1.21A.986.986 0 008.14 11.6a14.3 14.3 0 001.448 1.69c.587.59 1.225 1.126 1.907 1.602a.993.993 0 001.269-.11l1.17-1.188a.466.466 0 01.66 0l2.064 2.068a.466.466 0 01.001.659z"/></g><defs><clipPath id="arclip0"><path transform="translate(0 .999)" d="M0 0h22v22H0z"/></clipPath></defs></symbol><symbol viewBox="0 0 16 16" id="mail" xmlns="http://www.w3.org/2000/svg"><path d="M8 0C3.589 0 0 3.589 0 8s3.589 8 8 8c1.407 0 2.79-.37 4.001-1.07L11 13.197A5.997 5.997 0 018 14c-3.309 0-6-2.691-6-6s2.691-6 6-6 6 2.691 6 6v.871C14 9.525 13.58 10 13 10c-.551 0-1-.449-1-1V5h-1.382A3.966 3.966 0 008 4C5.794 4 4 5.794 4 8s1.794 4 4 4c1.05 0 2-.415 2.714-1.08A2.981 2.981 0 0013 12c1.682 0 3-1.374 3-3.129V8c0-4.411-3.589-8-8-8zm0 10c-1.103 0-2-.897-2-2s.897-2 2-2 2 .897 2 2-.897 2-2 2z"/></symbol><symbol viewBox="0 0 16 16" id="mod-win-dog" xmlns="http://www.w3.org/2000/svg"><path d="M8 0C3.589 0 0 3.589 0 8s3.589 8 8 8c1.407 0 2.79-.37 4.001-1.07L11 13.197A5.997 5.997 0 018 14c-3.309 0-6-2.691-6-6s2.691-6 6-6 6 2.691 6 6v.871C14 9.525 13.58 10 13 10c-.551 0-1-.449-1-1V5h-1.382A3.966 3.966 0 008 4C5.794 4 4 5.794 4 8s1.794 4 4 4c1.05 0 2-.415 2.714-1.08A2.981 2.981 0 0013 12c1.682 0 3-1.374 3-3.129V8c0-4.411-3.589-8-8-8zm0 10c-1.103 0-2-.897-2-2s.897-2 2-2 2 .897 2 2-.897 2-2 2z"/></symbol><symbol viewBox="0 0 18 18" id="mod-win-pdf" xmlns="http://www.w3.org/2000/svg"><path d="M4.49 7.348H3.376a.527.527 0 00-.527.529l.007 4.006a.527.527 0 001.055 0v-1.217l.58-.002c.927 0 1.681-.744 1.681-1.658 0-.914-.754-1.658-1.68-1.658zm0 2.262c-.135 0-.366 0-.583.002a146.834 146.834 0 01-.003-1.21h.587c.34 0 .626.277.626.604 0 .327-.287.604-.626.604zm4.486-2.262H7.875a.527.527 0 00-.527.528l.008 3.89a.528.528 0 00.527.525h.002c.033 0 .819-.003 1.133-.008 1.191-.021 2.056-1.057 2.056-2.464 0-1.478-.843-2.471-2.098-2.471zM9 11.228c-.136.003-.371.005-.59.006-.002-.458-.005-2.356-.006-2.832h.573c.968 0 1.044 1.085 1.044 1.418 0 .692-.316 1.396-1.02 1.408zm5.55-2.866a.527.527 0 000-1.055h-1.613a.527.527 0 00-.527.527v3.979a.527.527 0 001.055 0v-1.5h.957a.527.527 0 000-1.054h-.957v-.897h1.085z"/><path d="M16.102 5.098h-.387v-.15c0-.679-.257-1.323-.723-1.815l-2.19-2.31A2.648 2.648 0 0010.887 0h-7.02c-.873 0-1.583.71-1.583 1.582v3.516h-.387c-.872 0-1.582.71-1.582 1.582v6.328c0 .872.71 1.582 1.582 1.582h.387v1.828c0 .872.71 1.582 1.582 1.582h10.266c.872 0 1.582-.71 1.582-1.582V14.59h.387c.872 0 1.582-.71 1.582-1.582V6.68c0-.873-.71-1.582-1.582-1.582zM3.34 1.582c0-.29.236-.527.527-.527h7.02c.433 0 .851.18 1.149.493l2.19 2.31c.28.296.434.682.434 1.09v.15H3.34V1.582zm11.32 14.836c0 .29-.236.527-.527.527H3.867a.528.528 0 01-.527-.527V14.59h11.32v1.828zm1.969-3.41c0 .29-.237.527-.527.527H1.898a.528.528 0 01-.527-.527V6.68c0-.291.237-.528.527-.528h14.204c.29 0 .527.237.527.528v6.328z"/></symbol><symbol viewBox="0 0 16 16" id="mod-win-user" xmlns="http://www.w3.org/2000/svg"><g clip-path="url(#avclip0)"><path d="M7.885 7.707a3.73 3.73 0 002.725-1.129 3.729 3.729 0 001.129-2.725 3.73 3.73 0 00-1.13-2.724A3.73 3.73 0 007.886 0 3.73 3.73 0 005.16 1.129a3.729 3.729 0 00-1.129 2.724c0 1.06.38 1.976 1.13 2.725a3.73 3.73 0 002.724 1.13zm6.744 4.596a9.522 9.522 0 00-.13-1.01 7.975 7.975 0 00-.248-1.017 5.023 5.023 0 00-.418-.948 3.576 3.576 0 00-.63-.822 2.778 2.778 0 00-.905-.568c-.351-.14-.74-.21-1.156-.21-.163 0-.321.068-.626.266a83.46 83.46 0 01-.653.42c-.21.134-.493.26-.844.373-.342.11-.69.167-1.032.167a3.35 3.35 0 01-1.033-.167 3.73 3.73 0 01-.844-.372 89.76 89.76 0 01-.653-.42c-.305-.2-.463-.266-.626-.266-.416 0-.805.07-1.155.209-.352.14-.657.33-.906.569a3.58 3.58 0 00-.63.82 5.031 5.031 0 00-.417.949 7.95 7.95 0 00-.249 1.016 9.487 9.487 0 00-.13 1.011c-.02.307-.032.624-.032.945 0 .836.266 1.512.79 2.01.517.492 1.2.742 2.033.742h7.704c.832 0 1.516-.25 2.033-.742.524-.498.79-1.174.79-2.01 0-.322-.012-.64-.033-.945z"/></g><defs><clipPath id="avclip0"><path d="M0 0h16v16H0z"/></clipPath></defs></symbol><symbol viewBox="0 0 51 8" id="parners-slider-left" xmlns="http://www.w3.org/2000/svg"><path d="M.646 3.645a.5.5 0 000 .707l3.182 3.182a.5.5 0 10.708-.707L1.707 3.999 4.536 1.17a.5.5 0 10-.708-.707L.646 3.645zM51 3.499H1v1h50v-1z"/></symbol><symbol viewBox="0 0 51 8" id="parners-slider-right" xmlns="http://www.w3.org/2000/svg"><path d="M50.354 4.352a.5.5 0 000-.707L47.172.463a.5.5 0 10-.707.707L49.293 4l-2.828 2.828a.5.5 0 10.707.707l3.182-3.182zM0 4.5h50v-1H0v1z"/></symbol><symbol class="aysvg-inline--fa ayfa-phone ayfa-w-16" viewBox="0 0 512 512" id="phone" xmlns="http://www.w3.org/2000/svg"><path d="M493.4 24.6l-104-24c-11.3-2.6-22.9 3.3-27.5 13.9l-48 112c-4.2 9.8-1.4 21.3 6.9 28l60.6 49.6c-36 76.7-98.9 140.5-177.2 177.2l-49.6-60.6c-6.8-8.3-18.2-11.1-28-6.9l-112 48C3.9 366.5-2 378.1.6 389.4l24 104C27.1 504.2 36.7 512 48 512c256.1 0 464-207.5 464-464 0-11.2-7.7-20.9-18.6-23.4z"/></symbol><symbol viewBox="0 0 16 16" id="phone-modal" xmlns="http://www.w3.org/2000/svg"><path d="M14.716 10.502c-.98 0-1.941-.153-2.853-.454-.446-.153-.995-.013-1.268.267l-1.799 1.358C6.71 10.56 5.424 9.275 4.326 7.204l1.318-1.752c.343-.342.465-.842.318-1.31a9.098 9.098 0 01-.456-2.858C5.506.576 4.93 0 4.222 0H1.284C.576 0 0 .576 0 1.284 0 9.398 6.602 16 14.716 16c.708 0 1.284-.576 1.284-1.284v-2.93c0-.708-.576-1.284-1.284-1.284z"/></symbol><symbol viewBox="0 0 16 16" id="user" xmlns="http://www.w3.org/2000/svg"><g clip-path="url(#baclip0)"><path d="M7.885 7.707a3.73 3.73 0 002.725-1.129 3.729 3.729 0 001.129-2.725 3.73 3.73 0 00-1.13-2.724A3.73 3.73 0 007.886 0 3.73 3.73 0 005.16 1.129a3.729 3.729 0 00-1.129 2.724c0 1.06.38 1.976 1.13 2.725a3.73 3.73 0 002.724 1.13zm6.744 4.596a9.526 9.526 0 00-.13-1.01 7.979 7.979 0 00-.248-1.017 5.024 5.024 0 00-.418-.948 3.576 3.576 0 00-.63-.821 2.778 2.778 0 00-.905-.57 3.147 3.147 0 00-1.156-.208c-.163 0-.321.067-.626.265-.188.123-.408.264-.653.421-.21.134-.493.259-.844.372-.342.11-.69.167-1.032.167a3.35 3.35 0 01-1.033-.167 3.73 3.73 0 01-.844-.372 89.424 89.424 0 01-.653-.42c-.305-.2-.463-.266-.626-.266-.416 0-.805.07-1.155.209-.352.14-.657.33-.906.569a3.58 3.58 0 00-.63.82 5.03 5.03 0 00-.417.949c-.1.313-.184.654-.249 1.016a9.489 9.489 0 00-.13 1.012c-.02.306-.032.623-.032.944 0 .836.266 1.512.79 2.01.517.493 1.2.742 2.033.742h7.704c.832 0 1.516-.25 2.033-.742.524-.498.79-1.174.79-2.01 0-.322-.012-.64-.033-.945z"/></g><defs><clipPath id="baclip0"><path d="M0 0h16v16H0z"/></clipPath></defs></symbol></svg>