<?xml version="1.0" encoding="utf-8"?><svg xmlns="http://www.w3.org/2000/svg" xmlns:xlink="http://www.w3.org/1999/xlink"><symbol viewBox="0 0 51 8" id="arrow-l" xmlns="http://www.w3.org/2000/svg"/><symbol viewBox="0 0 51 8" id="arrow-r" xmlns="http://www.w3.org/2000/svg"/><symbol viewBox="0 0 344.96 344.96" id="check" xmlns="http://www.w3.org/2000/svg"><g data-name="Слой 2"><path d="M321.85 86.24l-40-23.11-23.1-40H212.5L172.48 0l-40 23.11H86.24l-23.11 40-40 23.1v46.21L0 172.48l23.11 40v46.21l40 23.11 23.11 40h46.21l40 23.1 40-23.11h46.21l23.11-40 40-23.11V212.5l23.11-40-23.11-40V86.24zM156.91 243.07a16.79 16.79 0 01-23.34 0l-50.45-50.44a16.19 16.19 0 010-22.89l13.35-13.35a16.19 16.19 0 0122.89 0l25.87 25.87 80.34-80.35a16.19 16.19 0 0122.89 0l13.35 13.35a16.19 16.19 0 010 22.89z" data-name="Capa 1"/></g></symbol><symbol viewBox="0 0 40 40" id="clock" xmlns="http://www.w3.org/2000/svg"><path d="M40 20c0 11.028-8.972 20-20 20S0 31.028 0 20 8.972 0 20 0s20 8.972 20 20zm-2.344 0c0-9.736-7.92-17.656-17.656-17.656-9.736 0-17.656 7.92-17.656 17.656 0 9.736 7.92 17.656 17.656 17.656 9.736 0 17.656-7.92 17.656-17.656z"/><path d="M35.315 20.003c0 8.443-6.87 15.312-15.313 15.312-8.443 0-15.312-6.87-15.312-15.313 0-8.443 6.87-15.312 15.312-15.312 8.444 0 15.313 6.87 15.313 15.312zm-2.344 0c0-7.152-5.817-12.97-12.968-12.97-7.152 0-12.97 5.818-12.97 12.97 0 7.15 5.818 12.968 12.97 12.968 7.15 0 12.968-5.817 12.968-12.968z"/><path d="M28.346 13.317l-1.658-1.657-6.684 6.684-6.657-6.656-1.657 1.657 6.657 6.657-1.658 1.657 1.658 1.657 1.657-1.657 1.657 1.657 1.658-1.657-1.658-1.657z"/><path d="M18.83 9.38h2.344v2.344H18.83zm0 18.9h2.344v2.344H18.83zm-9.45-9.45h2.344v2.344H9.38zm18.9 0h2.344v2.344H28.28z"/></symbol><symbol viewBox="0 0 22 23" id="contacts_location" xmlns="http://www.w3.org/2000/svg"><circle cx="11" cy="11.998" r="11"/><g clip-path="url(#eclip0)"><path d="M11 5.999a4.505 4.505 0 00-4.5 4.5c0 3.32 4.152 7.265 4.329 7.432a.25.25 0 00.342 0c.177-.167 4.329-4.113 4.329-7.433 0-2.48-2.019-4.5-4.5-4.5zm0 7a2.503 2.503 0 01-2.5-2.5c0-1.379 1.122-2.5 2.5-2.5s2.5 1.121 2.5 2.5c0 1.378-1.122 2.5-2.5 2.5z"/></g><defs><clipPath id="eclip0"><path transform="translate(5 5.999)" d="M0 0h12v12H0z"/></clipPath></defs></symbol><symbol viewBox="0 0 22 23" id="contacts_mail" xmlns="http://www.w3.org/2000/svg"><g clip-path="url(#fclip0)"><path d="M11.002.999c-6.075 0-11 4.925-11 11 0 6.074 4.925 11 11 11s11-4.926 11-11c0-6.076-4.925-11-11-11zm0 3.863l6.51 4.06H4.491l6.51-4.06zm6.59 10.541a1.18 1.18 0 01-1.179 1.179H5.591a1.179 1.179 0 01-1.179-1.179V9.18c0-.07.007-.136.019-.202l6.219 3.878.024.012a.74.74 0 00.16.066l.014.004a.664.664 0 00.308 0l.015-.004a.664.664 0 00.16-.066l.024-.012 6.219-3.878c.011.066.018.133.018.202v6.223z"/></g><defs><clipPath id="fclip0"><path transform="translate(0 .999)" d="M0 0h22v22H0z"/></clipPath></defs></symbol><symbol viewBox="0 0 22 23" id="contacts_phone" xmlns="http://www.w3.org/2000/svg"><g clip-path="url(#gclip0)"><path d="M18.777 4.219C14.481-.076 7.516-.075 3.221 4.22c-4.295 4.297-4.294 11.261.002 15.556 4.296 4.296 11.261 4.294 15.556-.002a11 11 0 00-.002-15.556zM16.659 16.32l-.001.001v-.003l-.558.553c-.72.73-1.77 1.03-2.768.792a9.747 9.747 0 01-2.83-1.268 13.077 13.077 0 01-2.234-1.8A13.181 13.181 0 016.6 12.57a10.264 10.264 0 01-1.254-2.537 2.933 2.933 0 01.733-2.996l.653-.652a.466.466 0 01.659-.002l.001.002 2.06 2.06a.466.466 0 010 .66l-1.21 1.21A.986.986 0 008.14 11.6a14.3 14.3 0 001.448 1.69c.587.59 1.225 1.126 1.907 1.602a.993.993 0 001.269-.11l1.17-1.188a.466.466 0 01.66 0l2.064 2.068a.466.466 0 01.001.659z"/></g><defs><clipPath id="gclip0"><path transform="translate(0 .999)" d="M0 0h22v22H0z"/></clipPath></defs></symbol><symbol viewBox="0 0 16 16" id="mail" xmlns="http://www.w3.org/2000/svg"><path d="M8 0C3.589 0 0 3.589 0 8s3.589 8 8 8c1.407 0 2.79-.37 4.001-1.07L11 13.197A5.997 5.997 0 018 14c-3.309 0-6-2.691-6-6s2.691-6 6-6 6 2.691 6 6v.871C14 9.525 13.58 10 13 10c-.551 0-1-.449-1-1V5h-1.382A3.966 3.966 0 008 4C5.794 4 4 5.794 4 8s1.794 4 4 4c1.05 0 2-.415 2.714-1.08A2.981 2.981 0 0013 12c1.682 0 3-1.374 3-3.129V8c0-4.411-3.589-8-8-8zm0 10c-1.103 0-2-.897-2-2s.897-2 2-2 2 .897 2 2-.897 2-2 2z"/></symbol><symbol viewBox="0 0 51 8" id="parners-slider-left" xmlns="http://www.w3.org/2000/svg"><path d="M.646 3.645a.5.5 0 000 .707l3.182 3.182a.5.5 0 10.708-.707L1.707 3.999 4.536 1.17a.5.5 0 10-.708-.707L.646 3.645zM51 3.499H1v1h50v-1z"/></symbol><symbol viewBox="0 0 51 8" id="parners-slider-right" xmlns="http://www.w3.org/2000/svg"><path d="M50.354 4.352a.5.5 0 000-.707L47.172.463a.5.5 0 10-.707.707L49.293 4l-2.828 2.828a.5.5 0 10.707.707l3.182-3.182zM0 4.5h50v-1H0v1z"/></symbol><symbol class="ksvg-inline--fa kfa-phone kfa-w-16" viewBox="0 0 512 512" id="phone" xmlns="http://www.w3.org/2000/svg"><path d="M493.4 24.6l-104-24c-11.3-2.6-22.9 3.3-27.5 13.9l-48 112c-4.2 9.8-1.4 21.3 6.9 28l60.6 49.6c-36 76.7-98.9 140.5-177.2 177.2l-49.6-60.6c-6.8-8.3-18.2-11.1-28-6.9l-112 48C3.9 366.5-2 378.1.6 389.4l24 104C27.1 504.2 36.7 512 48 512c256.1 0 464-207.5 464-464 0-11.2-7.7-20.9-18.6-23.4z"/></symbol><symbol viewBox="0 0 16 16" id="phone-modal" xmlns="http://www.w3.org/2000/svg"><path d="M14.716 10.502c-.98 0-1.941-.153-2.853-.454-.446-.153-.995-.013-1.268.267l-1.799 1.358C6.71 10.56 5.424 9.275 4.326 7.204l1.318-1.752c.343-.342.465-.842.318-1.31a9.098 9.098 0 01-.456-2.858C5.506.576 4.93 0 4.222 0H1.284C.576 0 0 .576 0 1.284 0 9.398 6.602 16 14.716 16c.708 0 1.284-.576 1.284-1.284v-2.93c0-.708-.576-1.284-1.284-1.284z"/></symbol><symbol viewBox="0 0 16 16" id="user" xmlns="http://www.w3.org/2000/svg"><g clip-path="url(#mclip0)"><path d="M7.885 7.707a3.73 3.73 0 002.725-1.129 3.729 3.729 0 001.129-2.725 3.73 3.73 0 00-1.13-2.724A3.73 3.73 0 007.886 0 3.73 3.73 0 005.16 1.129a3.729 3.729 0 00-1.129 2.724c0 1.06.38 1.976 1.13 2.725a3.73 3.73 0 002.724 1.13zm6.744 4.596a9.526 9.526 0 00-.13-1.01 7.979 7.979 0 00-.248-1.017 5.024 5.024 0 00-.418-.948 3.576 3.576 0 00-.63-.821 2.778 2.778 0 00-.905-.57 3.147 3.147 0 00-1.156-.208c-.163 0-.321.067-.626.265-.188.123-.408.264-.653.421-.21.134-.493.259-.844.372-.342.11-.69.167-1.032.167a3.35 3.35 0 01-1.033-.167 3.73 3.73 0 01-.844-.372 89.424 89.424 0 01-.653-.42c-.305-.2-.463-.266-.626-.266-.416 0-.805.07-1.155.209-.352.14-.657.33-.906.569a3.58 3.58 0 00-.63.82 5.03 5.03 0 00-.417.949c-.1.313-.184.654-.249 1.016a9.489 9.489 0 00-.13 1.012c-.02.306-.032.623-.032.944 0 .836.266 1.512.79 2.01.517.493 1.2.742 2.033.742h7.704c.832 0 1.516-.25 2.033-.742.524-.498.79-1.174.79-2.01 0-.322-.012-.64-.033-.945z"/></g><defs><clipPath id="mclip0"><path d="M0 0h16v16H0z"/></clipPath></defs></symbol></svg>