<?xml version="1.0" encoding="utf-8"?><svg xmlns="http://www.w3.org/2000/svg" xmlns:xlink="http://www.w3.org/1999/xlink"><symbol viewBox="0 0 51 8" id="arrow-l" xmlns="http://www.w3.org/2000/svg"/><symbol viewBox="0 0 51 8" id="arrow-r" xmlns="http://www.w3.org/2000/svg"/><symbol viewBox="0 0 344.96 344.96" id="check" xmlns="http://www.w3.org/2000/svg"><g data-name="Слой 2"><path d="M321.85 86.24l-40-23.11-23.1-40H212.5L172.48 0l-40 23.11H86.24l-23.11 40-40 23.1v46.21L0 172.48l23.11 40v46.21l40 23.11 23.11 40h46.21l40 23.1 40-23.11h46.21l23.11-40 40-23.11V212.5l23.11-40-23.11-40V86.24zM156.91 243.07a16.79 16.79 0 01-23.34 0l-50.45-50.44a16.19 16.19 0 010-22.89l13.35-13.35a16.19 16.19 0 0122.89 0l25.87 25.87 80.34-80.35a16.19 16.19 0 0122.89 0l13.35 13.35a16.19 16.19 0 010 22.89z" data-name="Capa 1"/></g></symbol><symbol viewBox="0 0 40 40" id="clock" xmlns="http://www.w3.org/2000/svg"><path d="M40 20c0 11.028-8.972 20-20 20S0 31.028 0 20 8.972 0 20 0s20 8.972 20 20zm-2.344 0c0-9.736-7.92-17.656-17.656-17.656-9.736 0-17.656 7.92-17.656 17.656 0 9.736 7.92 17.656 17.656 17.656 9.736 0 17.656-7.92 17.656-17.656z"/><path d="M35.315 20.003c0 8.443-6.87 15.312-15.313 15.312-8.443 0-15.312-6.87-15.312-15.313 0-8.443 6.87-15.312 15.312-15.312 8.444 0 15.313 6.87 15.313 15.312zm-2.344 0c0-7.152-5.817-12.97-12.968-12.97-7.152 0-12.97 5.818-12.97 12.97 0 7.15 5.818 12.968 12.97 12.968 7.15 0 12.968-5.817 12.968-12.968z"/><path d="M28.346 13.317l-1.658-1.657-6.684 6.684-6.657-6.656-1.657 1.657 6.657 6.657-1.658 1.657 1.658 1.657 1.657-1.657 1.657 1.657 1.658-1.657-1.658-1.657z"/><path d="M18.83 9.38h2.344v2.344H18.83zm0 18.9h2.344v2.344H18.83zm-9.45-9.45h2.344v2.344H9.38zm18.9 0h2.344v2.344H28.28z"/></symbol><symbol viewBox="0 0 22 23" id="contacts_location" xmlns="http://www.w3.org/2000/svg"><circle cx="11" cy="11.998" r="11"/><g clip-path="url(#eclip0)"><path d="M11 5.999a4.505 4.505 0 00-4.5 4.5c0 3.32 4.152 7.265 4.329 7.432a.25.25 0 00.342 0c.177-.167 4.329-4.113 4.329-7.433 0-2.48-2.019-4.5-4.5-4.5zm0 7a2.503 2.503 0 01-2.5-2.5c0-1.379 1.122-2.5 2.5-2.5s2.5 1.121 2.5 2.5c0 1.378-1.122 2.5-2.5 2.5z"/></g><defs><clipPath id="eclip0"><path transform="translate(5 5.999)" d="M0 0h12v12H0z"/></clipPath></defs></symbol><symbol viewBox="0 0 22 23" id="contacts_mail" xmlns="http://www.w3.org/2000/svg"><g clip-path="url(#fclip0)"><path d="M11.002.999c-6.075 0-11 4.925-11 11 0 6.074 4.925 11 11 11s11-4.926 11-11c0-6.076-4.925-11-11-11zm0 3.863l6.51 4.06H4.491l6.51-4.06zm6.59 10.541a1.18 1.18 0 01-1.179 1.179H5.591a1.179 1.179 0 01-1.179-1.179V9.18c0-.07.007-.136.019-.202l6.219 3.878.024.012a.74.74 0 00.16.066l.014.004a.664.664 0 00.308 0l.015-.004a.664.664 0 00.16-.066l.024-.012 6.219-3.878c.011.066.018.133.018.202v6.223z"/></g><defs><clipPath id="fclip0"><path transform="translate(0 .999)" d="M0 0h22v22H0z"/></clipPath></defs></symbol><symbol viewBox="0 0 22 23" id="contacts_phone" xmlns="http://www.w3.org/2000/svg"><g clip-path="url(#gclip0)"><path d="M18.777 4.219C14.481-.076 7.516-.075 3.221 4.22c-4.295 4.297-4.294 11.261.002 15.556 4.296 4.296 11.261 4.294 15.556-.002a11 11 0 00-.002-15.556zM16.659 16.32l-.001.001v-.003l-.558.553c-.72.73-1.77 1.03-2.768.792a9.747 9.747 0 01-2.83-1.268 13.077 13.077 0 01-2.234-1.8A13.181 13.181 0 016.6 12.57a10.264 10.264 0 01-1.254-2.537 2.933 2.933 0 01.733-2.996l.653-.652a.466.466 0 01.659-.002l.001.002 2.06 2.06a.466.466 0 010 .66l-1.21 1.21A.986.986 0 008.14 11.6a14.3 14.3 0 001.448 1.69c.587.59 1.225 1.126 1.907 1.602a.993.993 0 001.269-.11l1.17-1.188a.466.466 0 01.66 0l2.064 2.068a.466.466 0 01.001.659z"/></g><defs><clipPath id="gclip0"><path transform="translate(0 .999)" d="M0 0h22v22H0z"/></clipPath></defs></symbol><symbol viewBox="0 0 51 8" id="parners-slider-left" xmlns="http://www.w3.org/2000/svg"><path d="M.646 3.645a.5.5 0 000 .707l3.182 3.182a.5.5 0 10.708-.707L1.707 3.999 4.536 1.17a.5.5 0 10-.708-.707L.646 3.645zM51 3.499H1v1h50v-1z"/></symbol><symbol viewBox="0 0 51 8" id="parners-slider-right" xmlns="http://www.w3.org/2000/svg"><path d="M50.354 4.352a.5.5 0 000-.707L47.172.463a.5.5 0 10-.707.707L49.293 4l-2.828 2.828a.5.5 0 10.707.707l3.182-3.182zM0 4.5h50v-1H0v1z"/></symbol></svg>