<svg width="40" height="40" viewBox="0 0 40 40" fill="none" xmlns="http://www.w3.org/2000/svg">
<g clip-path="url(#clip0)">
<path d="M25.8594 29.4531H14.1406C13.4934 29.4531 12.9688 29.9778 12.9688 30.625V32.9688C12.9688 33.6159 13.4934 34.1406 14.1406 34.1406H25.8594C26.5066 34.1406 27.0312 33.6159 27.0312 32.9688V30.625C27.0312 29.9778 26.5066 29.4531 25.8594 29.4531Z" fill="white"/>
<path d="M14.7723 4.82961L13.115 3.17234C12.6574 2.71469 11.9154 2.71469 11.4578 3.17234L3.17137 11.4587C2.71371 11.9164 2.71371 12.6584 3.17137 13.116L4.82863 14.7733C5.28629 15.2309 6.02824 15.2309 6.4859 14.7733L14.7723 6.48688C15.23 6.02922 15.23 5.28727 14.7723 4.82961Z" fill="white"/>
<path d="M28.5406 3.17234C28.0829 2.71469 27.341 2.71469 26.8833 3.17234L25.2261 4.82961C24.7684 5.28727 24.7684 6.02922 25.2261 6.48688L33.5125 14.7733C33.9701 15.2309 34.7121 15.2309 35.1697 14.7733L36.827 13.116C37.2847 12.6584 37.2847 11.9164 36.827 11.4587L28.5406 3.17234Z" fill="white"/>
<path d="M15.3125 38.8281C15.3125 39.4753 15.8372 40 16.4844 40H23.5156C24.1628 40 24.6875 39.4753 24.6875 38.8281V36.4844H15.3125V38.8281Z" fill="white"/>
<path d="M6.97238 0.342754C6.51473 -0.114902 5.77277 -0.114902 5.31512 0.342754L0.343242 5.31463C-0.114414 5.77228 -0.114414 6.51424 0.343242 6.9719L2.34379 8.97244L8.97293 2.3433L6.97238 0.342754Z" fill="white"/>
<path d="M39.6551 5.31463L34.6832 0.342754C34.2256 -0.114902 33.4836 -0.114902 33.0259 0.342754L31.0254 2.3433L37.6545 8.97236L39.655 6.9719C40.1127 6.51424 40.1127 5.77228 39.6551 5.31463Z" fill="white"/>
<path d="M20.0017 13.3706L15.6037 8.97266L8.97461 15.6018L15.3142 21.9414V27.1091H24.6892V21.9414L31.0288 15.6018L24.3997 8.97266L20.0017 13.3706Z" fill="white"/>
</g>
<defs>
<clipPath id="clip0">
<rect width="40" height="40" fill="white"/>
</clipPath>
</defs>
</svg>
