<svg width="40" height="40" viewBox="0 0 40 40" fill="none" xmlns="http://www.w3.org/2000/svg">
<path d="M39.495 16.4191C39.1809 16.1999 38.7792 16.1484 38.4197 16.2807L35.9307 17.1975C34.2483 16.0014 32.1404 15.3491 29.9193 15.3491C26.8501 15.3491 23.9919 16.6256 22.2515 18.7274C20.8972 17.8489 19.2738 17.5333 17.6352 17.8582C16.4888 18.0857 15.4423 18.6117 14.6148 19.3428C14.0911 16.2891 15.829 13.422 18.15 10.1425C19.1936 9.58995 20.5185 9.62323 21.9161 9.65862C22.7669 9.68002 23.6467 9.70228 24.4974 9.5869C25.8335 9.40575 26.9053 8.59136 27.4382 7.35272C27.971 6.114 27.825 4.77583 27.0377 3.68132L25.4434 1.46479C24.5973 0.288639 23.1425 -0.244518 21.7371 0.106467C17.5615 1.14958 13.8405 3.05848 10.6775 5.78028C8.0861 8.01016 5.86676 10.7839 4.08105 14.0244C0.870471 19.8508 0.0385894 25.3679 0.000389553 26.8412C-0.0015634 26.9171 0.00382676 26.993 0.01656 27.0678C0.466287 29.7159 2.42073 32.1199 5.51984 33.8371C8.47193 35.4728 12.267 36.3737 16.2059 36.3737C20.0546 36.3737 23.7188 35.5275 26.6326 33.9781L32.9619 39.6925C33.1768 39.8866 33.4561 39.9943 33.7458 39.9946L38.8235 39.9999H38.8248C39.1354 39.9999 39.4332 39.8766 39.6529 39.6571C39.8729 39.4374 39.9966 39.1391 39.9966 38.8281V17.3803C39.9966 16.9971 39.8092 16.6382 39.495 16.4191Z" fill="white"/>
</svg>
