<svg width="40" height="40" viewBox="0 0 40 40" fill="none" xmlns="http://www.w3.org/2000/svg">
<g clip-path="url(#clip0)">
<path d="M24.0358 29.8563C23.4892 29.8563 22.9505 29.7615 22.4341 29.5742L20.0134 28.6957L17.5939 29.5788C17.0755 29.7679 16.534 29.8638 15.9843 29.8638C14.3169 29.8638 12.7618 28.9662 11.9259 27.5213L11.9102 27.4941L11.9181 37.6536C11.9181 38.5295 12.4002 39.3258 13.1763 39.7318C13.5195 39.9113 13.8925 40.0001 14.2642 40.0001C14.733 40.0001 15.1995 39.8588 15.6009 39.5803L19.9705 36.5469L24.34 39.5803C25.0595 40.0797 25.9886 40.1378 26.7646 39.7318C27.5407 39.3258 28.0228 38.5295 28.0228 37.6536V27.6335C27.1714 29.0082 25.6574 29.8563 24.0358 29.8563Z" fill="white"/>
<path d="M33.0911 10.2605L30.4624 8.05891L29.8639 4.68263C29.665 3.56046 28.6941 2.7467 27.5547 2.7467C27.554 2.7467 27.5531 2.7467 27.5524 2.7467L24.1236 2.74975L21.495 0.548411C20.6209 -0.183806 19.3528 -0.182711 18.4799 0.551147L15.8553 2.75749L12.4265 2.7607C11.2861 2.76179 10.3155 3.57774 10.1186 4.70084L9.5262 8.07814L6.90161 10.2846C6.02875 11.0183 5.80969 12.2672 6.38078 13.2542L8.09789 16.2222L7.50561 19.5993C7.30852 20.7225 7.94356 21.8201 9.01554 22.2092L12.2387 23.3789L13.9558 26.3468C14.3856 27.0897 15.1671 27.5185 15.9842 27.5185C16.2527 27.5185 16.525 27.4721 16.79 27.3755L20.011 26.1998L23.2341 27.3695C24.3059 27.7582 25.4971 27.3237 26.0664 26.3357L27.7781 23.3646L30.9992 22.189C32.0703 21.7979 32.7033 20.6992 32.5042 19.5764L31.9057 16.2002L33.6174 13.2291C34.1866 12.2411 33.9652 10.9926 33.0911 10.2605ZM19.9978 20.8177C16.2691 20.8177 13.2355 17.7842 13.2355 14.0555C13.2355 10.3268 16.2691 7.29323 19.9978 7.29323C23.7265 7.29323 26.7601 10.3268 26.7601 14.0555C26.7601 17.7842 23.7265 20.8177 19.9978 20.8177Z" fill="white"/>
<path d="M24.0885 15.7489C25.0228 13.4949 23.953 10.9103 21.699 9.97601C19.445 9.04172 16.8603 10.1116 15.9261 12.3656C14.9918 14.6196 16.0616 17.2042 18.3156 18.1385C20.5696 19.0727 23.1542 18.0029 24.0885 15.7489Z" fill="white"/>
</g>
<defs>
<clipPath id="clip0">
<rect width="40" height="40" fill="white"/>
</clipPath>
</defs>
</svg>
