<svg xmlns="http://www.w3.org/2000/svg" width="40" height="40" viewBox="0 0 40 40"><g><g><g/><g><g><path fill="#0671b6" d="M40 20c0 11.028-8.972 20-20 20S0 31.028 0 20 8.972 0 20 0s20 8.972 20 20zm-2.344 0c0-9.736-7.92-17.656-17.656-17.656-9.736 0-17.656 7.92-17.656 17.656 0 9.736 7.92 17.656 17.656 17.656 9.736 0 17.656-7.92 17.656-17.656z"/></g><g><path fill="#0671b6" d="M35.315 20.003c0 8.443-6.87 15.312-15.313 15.312-8.443 0-15.312-6.87-15.312-15.313 0-8.443 6.87-15.312 15.312-15.312 8.444 0 15.313 6.87 15.313 15.312zm-2.344 0c0-7.152-5.817-12.97-12.968-12.97-7.152 0-12.97 5.818-12.97 12.97 0 7.15 5.818 12.968 12.97 12.968 7.15 0 12.968-5.817 12.968-12.968z"/></g><g><path fill="#0671b6" d="M28.346 13.317l-1.658-1.657-6.684 6.684-6.657-6.656-1.657 1.657 6.657 6.657-1.658 1.657 1.658 1.657 1.657-1.657 1.657 1.657 1.658-1.657-1.658-1.657z"/></g><g><path fill="#0671b6" d="M18.83 9.38h2.344v2.344H18.83z"/></g><g><path fill="#0671b6" d="M18.83 28.28h2.344v2.344H18.83z"/></g><g><path fill="#0671b6" d="M9.38 18.83h2.344v2.344H9.38z"/></g><g><path fill="#0671b6" d="M28.28 18.83h2.344v2.344H28.28z"/></g></g></g></g></svg>