<svg width="20" height="20" viewBox="0 0 20 20" fill="none" xmlns="http://www.w3.org/2000/svg">
<g clip-path="url(#clip0)">
<path d="M18.121 6.63584C17.7633 5.77377 18.151 4.00916 17.0711 2.92843C15.992 1.85013 14.2237 2.23576 13.3638 1.87891C12.5648 1.54794 11.5575 0 10 0C8.44221 0 7.43657 1.54734 6.63584 1.8791C5.77377 2.23679 4.00916 1.84904 2.92843 2.92892C1.85019 4.00801 2.2357 5.77644 1.87891 6.63626C1.54776 7.43554 0 8.44251 0 9.99997C0 11.5577 1.54734 12.5634 1.8791 13.3642C2.23679 14.2262 1.84904 15.9908 2.92892 17.0716C4.0085 18.1503 5.77535 17.7638 6.63681 18.1213C7.43033 18.4494 8.44348 20.0001 10 20.0001C11.5578 20.0001 12.5635 18.4527 13.3642 18.121C14.226 17.7633 15.9904 18.1515 17.0716 17.0711C18.1498 15.992 17.7643 14.2236 18.1211 13.3638C18.4522 12.5645 20 11.5576 20 10.0001C20.0001 8.44227 18.4527 7.43657 18.121 6.63584ZM10 14.5455C7.49366 14.5455 5.45456 12.5064 5.45456 10C5.45456 7.49366 7.49366 5.45456 10 5.45456C12.5064 5.45456 14.5455 7.49366 14.5455 10C14.5455 12.5064 12.5064 14.5455 10 14.5455Z" fill="white"/>
</g>
<defs>
<clipPath id="clip0">
<rect width="20" height="20" fill="white"/>
</clipPath>
</defs>
</svg>
