<svg width="20" height="20" viewBox="0 0 20 20" fill="none" xmlns="http://www.w3.org/2000/svg">
<g clip-path="url(#clip0)">
<path d="M9.54508 9.54436C9.54508 9.79584 9.74891 9.99839 9.99954 9.99839C10.2502 9.99839 10.454 9.79457 10.454 9.54436C10.4544 9.01246 10.6434 8.49545 10.9863 8.08865C11.7493 7.18398 12.3212 6.20316 12.6833 5.17339C12.7323 5.03424 12.711 4.8802 12.6259 4.75978C12.5403 4.63936 12.4025 4.56787 12.2548 4.56787H7.74385C7.59619 4.56787 7.45789 4.63936 7.37236 4.75978C7.28726 4.8802 7.26598 5.03424 7.31492 5.17339C7.67789 6.20316 8.24894 7.18398 9.0119 8.08865C9.3553 8.49545 9.54466 9.01288 9.54508 9.54436Z" fill="white"/>
<path d="M10.4544 11.3657C10.4544 11.1146 10.2505 10.9116 9.99991 10.9116C9.74927 10.9116 9.54545 11.1154 9.54545 11.3657C9.54502 12.0218 9.15312 12.6707 8.44207 13.1971C6.92125 14.3201 5.78298 15.54 5.05874 16.8226C4.97916 16.9638 4.98044 17.1357 5.06257 17.2745C5.14342 17.4145 5.2932 17.5 5.4549 17.5H14.5458C14.707 17.5 14.8564 17.4145 14.9381 17.2745C15.0194 17.1357 15.0207 16.9638 14.9415 16.8226C14.2177 15.54 13.079 14.3201 11.5586 13.1971C10.8467 12.6707 10.4548 12.0218 10.4544 11.3657Z" fill="white"/>
<path d="M17.9538 18.1822H17.6819C17.3696 14.6448 15.2981 11.9291 13.6879 10.0002C15.2985 8.07174 17.3691 5.35563 17.6827 1.81826H17.9547C18.4568 1.81826 18.8636 1.41103 18.8636 0.908917C18.8636 0.4068 18.4568 0 17.9547 0H2.04564C1.54352 0 1.13672 0.407225 1.13672 0.908917C1.13672 1.41103 1.54352 1.81826 2.04564 1.81826H2.31754C2.6303 5.35606 4.7009 8.07217 6.3115 10.0002C4.70132 11.9287 2.6303 14.6444 2.31712 18.1822H2.04564C1.54352 18.1822 1.13672 18.5885 1.13672 19.0907C1.13672 19.5932 1.54352 20.0004 2.04564 20.0004H3.18221H16.8177H17.9547C18.4568 20.0004 18.8636 19.5932 18.8636 19.0907C18.8636 18.5885 18.4563 18.1822 17.9538 18.1822ZM4.13963 18.1822C4.48133 14.9861 6.55916 12.5248 8.11189 10.6857L8.19487 10.5874C8.48082 10.2491 8.48082 9.75384 8.19487 9.41512L8.11231 9.31725C6.56001 7.47771 4.48133 5.01649 4.13963 1.81996H15.8602C15.5185 5.01649 13.4399 7.47771 11.8876 9.31725L11.8054 9.41512C11.5195 9.75341 11.5195 10.2487 11.8054 10.5874L11.8884 10.6857C13.4407 12.5248 15.5185 14.9861 15.8602 18.1822H4.13963Z" fill="white"/>
</g>
<defs>
<clipPath id="clip0">
<rect width="20" height="20" fill="white"/>
</clipPath>
</defs>
</svg>
