<svg width="20" height="20" viewBox="0 0 20 20" fill="none" xmlns="http://www.w3.org/2000/svg">
<g clip-path="url(#clip0)">
<path d="M4.31321 9.53711C3.21494 9.53711 2.32422 10.4278 2.32422 11.5261C2.32422 12.6244 3.21494 13.5151 4.31321 13.5151C5.41149 13.5151 6.30221 12.6244 6.30221 11.5261C6.30221 10.4278 5.41149 9.53711 4.31321 9.53711Z" fill="white"/>
<path d="M13.8097 3.69139C12.9276 3.42331 11.7126 3.27197 10.4803 3.27197C9.23498 3.27197 8.06321 3.42331 7.18978 3.69139C6.36392 3.9465 6.07422 4.2362 6.07422 4.32701C6.07854 4.33133 6.08287 4.33565 6.08287 4.33998C6.10449 4.4351 6.36824 4.73345 7.29788 5.00154C8.15833 5.25232 9.29119 5.39069 10.4846 5.39069C11.7169 5.39069 12.9319 5.23503 13.8097 4.97127C14.7523 4.68589 14.9555 4.39187 14.9555 4.33133C14.9555 4.2708 14.7523 3.97677 13.8097 3.69139Z" fill="white"/>
<path d="M14.0633 5.78856C13.0947 6.08259 11.8278 6.24257 10.4917 6.24257C9.21617 6.24257 8.00115 6.09556 7.06287 5.82316C6.73857 5.73668 6.42725 5.61561 6.12891 5.46427L6.15917 6.68361C6.64345 6.86521 7.10178 7.12465 7.50823 7.44894C7.51688 7.45326 7.52985 7.45326 7.54282 7.45759C8.37301 7.66946 9.41939 7.78188 10.4874 7.78188C11.7197 7.78188 12.9347 7.63054 13.8125 7.36246C14.7508 7.07708 14.954 6.77874 14.954 6.72253C14.954 6.63605 14.9756 6.55389 15.0232 6.48039V5.39941C14.7162 5.56805 14.3919 5.70209 14.0633 5.78856Z" fill="white"/>
<path d="M10.3039 13.5928C10.2952 13.5409 10.2952 13.4934 10.3039 13.4415C9.90175 13.4371 9.5126 13.4155 9.14074 13.3853C8.94184 13.8998 8.66078 14.3797 8.31055 14.8078C8.98076 14.9202 9.65096 14.9764 10.3212 14.9851L10.3039 13.5928Z" fill="white"/>
<path d="M8.53305 10.6572C8.33847 9.7232 7.84122 8.87571 7.11481 8.25739C6.66945 7.86824 6.14626 7.57854 5.58415 7.40558C5.16906 7.28019 4.74099 7.21533 4.3086 7.21533C3.23628 7.21533 2.20287 7.61745 1.40727 8.33955C-0.352556 9.93939 -0.477949 12.6678 1.12189 14.4276C2.72173 16.1874 5.45011 16.3171 7.20994 14.713C8.10931 13.9001 8.62385 12.7413 8.61952 11.5263C8.61952 11.2366 8.58926 10.9425 8.53305 10.6572ZM4.31293 14.3757C2.73903 14.3757 1.45916 13.0958 1.45916 11.5219C1.45916 9.94804 2.7347 8.66816 4.31293 8.66816C5.88682 8.67249 7.16237 9.94804 7.1667 11.5219C7.1667 13.0958 5.88682 14.3757 4.31293 14.3757Z" fill="white"/>
<path d="M10.2928 12.5726L10.2755 11.1328C10.2669 11.1025 10.2582 11.0723 10.2539 11.042C9.98147 11.0377 9.71771 11.029 9.4626 11.0117C9.47557 11.1847 9.48422 11.3533 9.48422 11.5219C9.48422 11.8592 9.44963 12.2008 9.38477 12.5337C9.67447 12.5553 9.98147 12.5683 10.2928 12.5726Z" fill="white"/>
<path d="M18.8228 10.2379C17.945 9.96984 16.7343 9.82715 15.4977 9.82715H15.4631C14.3043 9.82715 13.2017 9.95686 12.3542 10.1947C11.5111 10.4282 11.1868 10.6919 11.1133 10.826C11.1263 10.8649 11.1349 10.9038 11.1349 10.9427C11.2387 11.0897 11.5889 11.3448 12.4018 11.5653C13.2493 11.7945 14.3519 11.9242 15.4977 11.9242C16.73 11.9242 17.9018 11.7815 18.7882 11.5178C19.7481 11.2324 19.96 10.9341 19.9643 10.8692V10.8649C19.9513 10.7914 19.7308 10.5146 18.8228 10.2379Z" fill="white"/>
<path d="M19.057 14.7348C18.0884 15.0288 16.8345 15.1888 15.4984 15.1888C14.318 15.1888 13.1722 15.0591 12.2641 14.8213C11.8923 14.7305 11.5334 14.6007 11.1875 14.4321L11.2005 15.4093L11.2048 15.6731C11.2048 15.6774 11.2048 15.6774 11.2048 15.6817C11.2048 15.7768 11.4815 16.0622 12.3074 16.3173C13.1765 16.5811 14.3396 16.7281 15.5892 16.7281C16.8345 16.7281 18.002 16.5768 18.884 16.3044C19.805 16.019 19.9953 15.7206 19.9953 15.6601V14.3413C19.7358 14.5099 19.3726 14.6397 19.057 14.7348Z" fill="white"/>
<path d="M19.0281 12.3476C18.0639 12.633 16.8143 12.7886 15.4998 12.7886C13.8913 12.7886 12.1747 12.5465 11.1543 12.0146L11.1716 13.381C11.5434 13.7961 13.1433 14.3193 15.4955 14.3193C16.7494 14.3193 17.9255 14.1723 18.8119 13.9042C19.7415 13.6188 19.9404 13.3248 19.9404 13.2642C19.9404 13.1778 19.9967 13.0999 20.001 13.0351V11.9541C19.6897 12.1227 19.3654 12.2525 19.0281 12.3476Z" fill="white"/>
<path d="M14.0557 8.19711C13.0871 8.49114 11.8202 8.65112 10.4841 8.65112C9.83121 8.65112 9.17397 8.60788 8.52539 8.52573C8.8713 9.01433 9.13506 9.55914 9.29504 10.1342C9.6669 10.1645 10.0647 10.1818 10.4841 10.1818C10.4971 10.1818 10.5057 10.1818 10.5187 10.1818C10.8214 9.84452 11.3532 9.56779 12.1142 9.35159C12.9228 9.12243 13.9389 8.98406 15.0199 8.9538V7.79932C14.7129 7.96795 14.3929 8.10199 14.0557 8.19711Z" fill="white"/>
</g>
<defs>
<clipPath id="clip0">
<rect width="20" height="20" fill="white"/>
</clipPath>
</defs>
</svg>
