<svg width="26" height="26" viewBox="0 0 26 26" fill="none" xmlns="http://www.w3.org/2000/svg">
<path d="M13 0C5.83192 0 0 5.83167 0 13C0 20.1683 5.83192 26 13 26C20.1681 26 26 20.1683 26 13C26 5.83167 20.1681 0 13 0ZM19.7841 16.1094H6.21593C5.74778 16.1094 5.36793 15.7298 5.36793 15.2614C5.36793 14.7929 5.74778 14.4134 6.21593 14.4134H19.7841C20.2523 14.4134 20.6321 14.793 20.6321 15.2614C20.6321 15.7298 20.2522 16.1094 19.7841 16.1094ZM19.7841 11.0213H6.21593C5.74778 11.0213 5.36793 10.6417 5.36793 10.1733C5.36793 9.70485 5.74778 9.32532 6.21593 9.32532H19.7841C20.2523 9.32532 20.6321 9.70491 20.6321 10.1733C20.6321 10.6417 20.2522 11.0213 19.7841 11.0213Z" fill="#B0C5DD"/>
</svg>
