<svg width="20" height="20" viewBox="0 0 20 20" fill="none" xmlns="http://www.w3.org/2000/svg">
<g clip-path="url(#clip0)">
<path d="M9.4831 16.3335L3.25977 8.3335H7.40977L9.4831 16.3335Z" fill="white"/>
<path d="M11.7049 11.7635C11.7509 11.5849 11.6435 11.4029 11.4649 11.3568C11.2863 11.3108 11.1043 11.4183 11.0582 11.5968L10.0016 15.6735L8.10156 8.3335H11.9016L11.4916 9.91683C11.4618 10.0323 11.4959 10.155 11.5811 10.2385C11.6662 10.3221 11.7895 10.3538 11.9044 10.3218C12.0193 10.2899 12.1085 10.199 12.1382 10.0835L12.5916 8.3335H16.7416L10.5182 16.3335L11.7049 11.7635Z" fill="white"/>
<path d="M1.33333 10.3332H0.333333C0.149238 10.3332 0 10.1839 0 9.99984C0 9.81574 0.149238 9.6665 0.333333 9.6665H1.33333C1.51743 9.6665 1.66667 9.81574 1.66667 9.99984C1.66667 10.1839 1.51743 10.3332 1.33333 10.3332Z" fill="white"/>
<path d="M19.6673 10.3332H18.6673C18.4832 10.3332 18.334 10.1839 18.334 9.99984C18.334 9.81574 18.4832 9.6665 18.6673 9.6665H19.6673C19.8514 9.6665 20.0007 9.81574 20.0007 9.99984C20.0007 10.1839 19.8514 10.3332 19.6673 10.3332Z" fill="white"/>
<path d="M10.0013 20.0002C9.8172 20.0002 9.66797 19.8509 9.66797 19.6668V18.6668C9.66797 18.4827 9.8172 18.3335 10.0013 18.3335C10.1854 18.3335 10.3346 18.4827 10.3346 18.6668V19.6668C10.3346 19.8509 10.1854 20.0002 10.0013 20.0002Z" fill="white"/>
<path d="M10.0013 1.66667C9.8172 1.66667 9.66797 1.51743 9.66797 1.33333V0.333333C9.66797 0.149238 9.8172 0 10.0013 0C10.1854 0 10.3346 0.149238 10.3346 0.333333V1.33333C10.3346 1.51743 10.1854 1.66667 10.0013 1.66667Z" fill="white"/>
<path d="M3.16497 17.1686C3.03032 17.1684 2.90899 17.0872 2.85744 16.9628C2.80589 16.8384 2.83424 16.6952 2.9293 16.5999L3.63631 15.8929C3.7671 15.7666 3.975 15.7684 4.10358 15.8969C4.23216 16.0255 4.23396 16.2334 4.10764 16.3642L3.40031 17.0709C3.33789 17.1333 3.25325 17.1684 3.16497 17.1686Z" fill="white"/>
<path d="M16.1262 4.20489C15.9914 4.20487 15.8699 4.12365 15.8183 3.99911C15.7668 3.87457 15.7953 3.73123 15.8906 3.63589L16.5979 2.92889C16.6808 2.83885 16.8064 2.80146 16.925 2.8315C17.0436 2.86154 17.1363 2.95417 17.1663 3.07281C17.1964 3.19145 17.159 3.31701 17.0689 3.39989L16.3619 4.10689C16.2995 4.16953 16.2147 4.20479 16.1262 4.20489Z" fill="white"/>
<path d="M16.8351 17.1689C16.7467 17.1689 16.6619 17.1337 16.5994 17.0712L15.8924 16.3642C15.7661 16.2334 15.7679 16.0255 15.8965 15.8969C16.025 15.7684 16.2329 15.7666 16.3637 15.8929L17.0707 16.6002C17.166 16.6956 17.1945 16.8389 17.143 16.9634C17.0914 17.088 16.9699 17.1692 16.8351 17.1692V17.1689Z" fill="white"/>
<path d="M3.87254 4.20489C3.78414 4.20488 3.69937 4.16974 3.63687 4.10723L2.92987 3.39989C2.83982 3.31701 2.80243 3.19145 2.83247 3.07281C2.86251 2.95417 2.95515 2.86154 3.07379 2.8315C3.19243 2.80146 3.31799 2.83885 3.40087 2.92889L4.10787 3.63589C4.20317 3.73123 4.23168 3.87457 4.1801 3.99911C4.12852 4.12365 4.007 4.20487 3.8722 4.20489H3.87254Z" fill="white"/>
<path d="M7.05956 7.66689H3.21289L5.13622 4.64355L7.05956 7.66689Z" fill="white"/>
<path d="M9.60656 4.33301L7.66656 7.37967L5.72656 4.33301H9.60656Z" fill="white"/>
<path d="M11.7221 7.66646H8.27539L9.99873 4.95312L11.7221 7.66646Z" fill="white"/>
<path d="M14.2726 4.33301L12.3326 7.37967L10.3926 4.33301H14.2726Z" fill="white"/>
<path d="M16.7861 7.66689H12.9395L14.8628 4.64355L16.7861 7.66689Z" fill="white"/>
</g>
<defs>
<clipPath id="clip0">
<rect width="20" height="20" fill="white"/>
</clipPath>
</defs>
</svg>
