<svg width="22" height="23" viewBox="0 0 22 23" fill="none" xmlns="http://www.w3.org/2000/svg">
<circle cx="11" cy="11.9985" r="11" fill="#0671B6"/>
<g clip-path="url(#clip0)">
<path d="M11 5.99854C8.51855 5.99854 6.5 8.01732 6.5 10.4985C6.5 13.8184 10.6519 17.7642 10.8286 17.9307C10.877 17.9758 10.9385 17.9985 11 17.9985C11.0615 17.9985 11.123 17.9758 11.1714 17.9307C11.3481 17.7642 15.5 13.8184 15.5 10.4985C15.5 8.01732 13.4814 5.99854 11 5.99854ZM11 12.9985C9.62157 12.9985 8.49999 11.877 8.49999 10.4985C8.49999 9.12011 9.62159 7.99853 11 7.99853C12.3784 7.99853 13.5 9.12013 13.5 10.4985C13.5 11.8769 12.3784 12.9985 11 12.9985Z" fill="white"/>
</g>
<defs>
<clipPath id="clip0">
<rect width="12" height="12" fill="white" transform="translate(5 5.99854)"/>
</clipPath>
</defs>
</svg>
