<svg width="48" height="48" viewBox="0 0 48 48" fill="none" xmlns="http://www.w3.org/2000/svg">
<path d="M24 0C10.7659 0 0 10.7659 0 24C0 37.2341 10.7659 48 24 48C37.2341 48 48 37.2341 48 24C48 10.7659 37.2341 0 24 0Z" fill="#0671B6"/>
<path d="M36.1646 18.9141L23.1644 31.9138C22.7744 32.3038 22.2625 32.5001 21.7505 32.5001C21.2385 32.5001 20.7266 32.3038 20.3365 31.9138L13.8367 25.4139C13.0544 24.6321 13.0544 23.3679 13.8367 22.5861C14.6185 21.8038 15.8823 21.8038 16.6646 22.5861L21.7505 27.672L33.3367 16.0862C34.1185 15.304 35.3823 15.304 36.1646 16.0862C36.9464 16.868 36.9464 18.1318 36.1646 18.9141Z" fill="#FAFAFA"/>
</svg>
