<svg width="18" height="18" viewBox="0 0 18 18" fill="none" xmlns="http://www.w3.org/2000/svg">
<path d="M4.4909 7.34766H3.375C3.23487 7.34766 3.10047 7.40345 3.0015 7.5027C2.90254 7.60194 2.8472 7.73652 2.84766 7.87669L2.85543 11.8826C2.85543 12.1738 3.09154 12.4099 3.38277 12.4099C3.67401 12.4099 3.91012 12.1738 3.91012 11.8826V10.6663C4.12573 10.6652 4.35607 10.6642 4.4909 10.6642C5.41748 10.6642 6.17133 9.92032 6.17133 9.00594C6.17133 8.09156 5.41748 7.34766 4.4909 7.34766ZM4.4909 9.60954C4.35488 9.60954 4.12369 9.61049 3.90723 9.61161C3.90611 9.38711 3.90512 9.14534 3.90512 9.00594C3.90512 8.88666 3.90453 8.63701 3.90389 8.40234H4.49086C4.83005 8.40234 5.11661 8.67874 5.11661 9.00594C5.11661 9.33314 4.83008 9.60954 4.4909 9.60954Z" fill="white"/>
<path d="M8.97645 7.34766H7.875C7.73497 7.34766 7.60068 7.40334 7.50175 7.50245C7.40282 7.60155 7.34738 7.73596 7.34766 7.87598C7.34766 7.87602 7.3555 11.7518 7.35553 11.7659C7.35606 11.9058 7.4121 12.0397 7.51138 12.1383C7.6102 12.2363 7.74373 12.2913 7.88288 12.2913H7.88488C7.91817 12.2912 8.70381 12.2882 9.0179 12.2827C10.2095 12.2619 11.0743 11.226 11.0743 9.81949C11.0743 8.34103 10.2312 7.34766 8.97645 7.34766ZM8.99947 11.2282C8.86289 11.2306 8.62791 11.2325 8.40846 11.2339C8.40699 10.7759 8.4041 8.87836 8.40329 8.40234H8.97645C9.9444 8.40234 10.0196 9.48706 10.0196 9.81953C10.0196 10.5118 9.70418 11.2159 8.99947 11.2282Z" fill="white"/>
<path d="M14.5499 8.36181C14.8411 8.36181 15.0772 8.1257 15.0772 7.83447C15.0772 7.54324 14.8411 7.30713 14.5499 7.30713H12.9375C12.6463 7.30713 12.4102 7.54324 12.4102 7.83447V11.8127C12.4102 12.1039 12.6463 12.34 12.9375 12.34C13.2287 12.34 13.4648 12.1039 13.4648 11.8127V10.3133H14.4218C14.713 10.3133 14.9491 10.0772 14.9491 9.78592C14.9491 9.49468 14.713 9.25858 14.4218 9.25858H13.4648V8.36181H14.5499Z" fill="white"/>
<path d="M16.1016 5.09766H15.7148V4.94722C15.7148 4.26934 15.458 3.6251 14.9916 3.13313L12.8012 0.822621C12.3056 0.299848 11.6081 0 10.8877 0H3.86719C2.99486 0 2.28516 0.709699 2.28516 1.58203V5.09766H1.89844C1.02611 5.09766 0.316406 5.80736 0.316406 6.67969V13.0078C0.316406 13.8801 1.02611 14.5898 1.89844 14.5898H2.28516V16.418C2.28516 17.2903 2.99486 18 3.86719 18H14.1328C15.0051 18 15.7148 17.2903 15.7148 16.418V14.5898H16.1016C16.9739 14.5898 17.6836 13.8801 17.6836 13.0078V6.67969C17.6836 5.80736 16.9739 5.09766 16.1016 5.09766ZM3.33984 1.58203C3.33984 1.29125 3.57641 1.05469 3.86719 1.05469H10.8877C11.32 1.05469 11.7384 1.23458 12.0358 1.54828L14.2262 3.85879C14.5061 4.15396 14.6602 4.5405 14.6602 4.94722V5.09766H3.33984V1.58203ZM14.6602 16.418C14.6602 16.7087 14.4236 16.9453 14.1328 16.9453H3.86719C3.57641 16.9453 3.33984 16.7087 3.33984 16.418V14.5898H14.6602V16.418ZM16.6289 13.0078C16.6289 13.2986 16.3923 13.5352 16.1016 13.5352H1.89844C1.60766 13.5352 1.37109 13.2986 1.37109 13.0078V6.67969C1.37109 6.38891 1.60766 6.15234 1.89844 6.15234H16.1016C16.3923 6.15234 16.6289 6.38891 16.6289 6.67969V13.0078Z" fill="white"/>
</svg>
