<svg width="58" height="60" viewBox="0 0 58 60" fill="none" xmlns="http://www.w3.org/2000/svg">
<path d="M57.6823 33.6816C57.6092 33.4834 57.4752 33.3136 57.2995 33.1963L51.3059 29.2005C51.0501 29.0273 50.728 28.9845 50.4358 29.0847L32.4547 35.0783C32.3095 35.1303 32.1785 35.2154 32.0721 35.3271L32.0641 35.3191L26.3631 41.0201H19.7841V43.018H26.7767C27.0417 43.018 27.2957 42.9126 27.483 42.7253L31.7715 38.4368V58.0022H7.79672V50.0106H5.79883V59.0011C5.79883 59.5528 6.24611 60.0001 6.79778 60.0001H32.7704C32.8778 60.0001 32.9844 59.9826 33.0861 59.9481L51.0671 53.9544C51.4749 53.8186 51.75 53.4372 51.7504 53.0074V36.9325L57.0908 34.9646C57.6083 34.7737 57.8732 34.1993 57.6823 33.6816ZM49.7525 52.2873L33.7693 57.6147V38.4349L37.0589 41.7245C37.3345 41.9999 37.7451 42.0901 38.1108 41.9552L49.7525 37.6687V52.2873ZM38.0199 39.8624L34.6234 36.466L50.6066 31.1376L54.5594 33.7718L38.0199 39.8624Z" fill="#0671B6"/>
<path d="M11.7909 54.0063H9.79297V56.0042H11.7909V54.0063Z" fill="#0671B6"/>
<path d="M15.787 54.0063H13.7891V56.0042H15.787V54.0063Z" fill="#0671B6"/>
<path d="M19.7831 54.0063H17.7852V56.0042H19.7831V54.0063Z" fill="#0671B6"/>
<path d="M37.7616 50.0107H35.7637V55.0055H37.7616V50.0107Z" fill="#0671B6"/>
<path d="M40.7577 48.0127H38.7598V53.0074H40.7577V48.0127Z" fill="#0671B6"/>
<path d="M30.1571 10.0523C30.3643 10.0428 30.5718 10.0429 30.779 10.0527V8.05476C25.9777 7.88644 21.949 11.6422 21.7807 16.4435C21.7737 16.6441 21.7736 16.8447 21.7805 17.0453H23.7784C23.6087 13.3527 26.4647 10.2219 30.1571 10.0523Z" fill="#0671B6"/>
<path d="M30.7715 30.0315C37.9436 30.0315 43.7578 24.2173 43.7578 17.0451C43.7578 9.87296 37.9436 4.05884 30.7715 4.05884C23.5993 4.05884 17.7852 9.87296 17.7852 17.0451C17.7934 24.2138 23.6026 30.0231 30.7715 30.0315ZM30.7715 6.05673C36.8402 6.05673 41.7599 10.9764 41.7599 17.0451C41.7599 23.1139 36.8402 28.0336 30.7715 28.0336C24.7027 28.0336 19.783 23.1139 19.783 17.0451C19.7902 10.9793 24.7056 6.06385 30.7715 6.05673Z" fill="#0671B6"/>
<path d="M15.7856 38.4374L16.0783 38.7301C16.4684 39.12 17.1008 39.12 17.4908 38.7301L20.4877 35.7332C20.8776 35.3431 20.8776 34.7108 20.4877 34.3207L19.196 33.0291L21.18 31.0472C28.9295 36.3604 39.519 34.3854 44.8321 26.6358C50.1454 18.8862 48.1704 8.29677 40.4208 2.98362C32.6712 -2.32953 22.0818 -0.354735 16.7686 7.39485C12.7935 13.1926 12.7935 20.838 16.7686 26.6357L14.7867 28.6196L13.4951 27.328C13.105 26.938 12.4726 26.938 12.0825 27.328L9.0857 30.3248C8.69574 30.7149 8.69574 31.3472 9.0857 31.7373L9.37839 32.03L1.5936 39.8149C-0.175659 41.5823 -0.177282 44.4495 1.59023 46.2188C2.44033 47.0699 3.59424 47.5476 4.79722 47.5468C5.99883 47.5493 7.15187 47.0725 8.00085 46.2222L15.7856 38.4374ZM15.7856 17.0459C15.795 8.77427 22.4982 2.07108 30.7698 2.06172C39.0454 2.06172 45.754 8.7704 45.754 17.0459C45.754 25.3214 39.0454 32.0301 30.7698 32.0301C22.4943 32.0301 15.7856 25.3214 15.7856 17.0459ZM18.0123 28.2181C18.5051 28.7804 19.0343 29.3096 19.5966 29.8025L17.7835 31.6166L16.1992 30.0322L18.0123 28.2181ZM12.7888 29.4468L14.0774 30.7355L17.0743 33.7323L18.3689 35.027L16.7846 36.6113L11.2045 31.0312L12.7888 29.4468ZM3.00611 44.7531C2.05412 43.7706 2.05412 42.2099 3.00611 41.2274L10.7909 33.4426L14.3731 37.0249L6.58834 44.8097C5.58352 45.7833 3.97971 45.7579 3.00611 44.7531Z" fill="#0671B6"/>
</svg>
