<svg width="61" height="54" viewBox="0 0 61 54" fill="none" xmlns="http://www.w3.org/2000/svg">
<path d="M30.0017 26.469C24.4789 26.469 20.002 30.9456 20.002 36.4687C20.002 41.9916 24.4789 46.4689 30.0017 46.4689C35.5245 46.4689 40.0015 41.9916 40.0015 36.4687C39.9956 30.9485 35.522 26.4749 30.0017 26.469ZM30.0017 44.4686C25.5834 44.4686 22.0018 40.8871 22.0018 36.4687C22.0018 32.0504 25.5834 28.4689 30.0017 28.4689C34.42 28.4689 38.0016 32.0504 38.0016 36.4687C37.9965 40.8845 34.4178 44.4639 30.0017 44.4686Z" fill="#0671B6"/>
<path d="M30.0021 25.4686C30.5543 25.4686 31.0022 25.0211 31.0022 24.4689V23.4687C31.0022 22.9169 30.5543 22.469 30.0021 22.469C29.4498 22.469 29.002 22.9169 29.002 23.4687V24.4689C29.002 25.0211 29.4498 25.4686 30.0021 25.4686Z" fill="#0671B6"/>
<path d="M38.4868 26.5685L37.7797 27.2757C37.3827 27.6595 37.3717 28.2927 37.7551 28.6896C38.1389 29.0866 38.7721 29.0976 39.1694 28.7142C39.1775 28.7065 39.1859 28.6981 39.1936 28.6896L39.9008 27.9825C40.2846 27.5851 40.2736 26.9523 39.8762 26.5685C39.4888 26.1943 38.8743 26.1943 38.4868 26.5685Z" fill="#0671B6"/>
<path d="M43.0018 35.4683H42.0017C41.4495 35.4683 41.002 35.9165 41.002 36.4688C41.002 37.021 41.4495 37.4689 42.0017 37.4689H43.0018C43.5537 37.4689 44.0016 37.021 44.0016 36.4688C44.0016 35.9165 43.5537 35.4683 43.0018 35.4683Z" fill="#0671B6"/>
<path d="M39.1944 44.2463C38.7974 43.8629 38.1638 43.8739 37.7804 44.2712C37.4065 44.659 37.4065 45.2732 37.7804 45.6606L38.4876 46.3678C38.878 46.7582 39.5111 46.7585 39.9019 46.3681C40.2926 45.9778 40.293 45.3446 39.9026 44.9538L39.1944 44.2463Z" fill="#0671B6"/>
<path d="M30.0021 47.4685C29.4498 47.4685 29.002 47.9164 29.002 48.4686V49.4684C29.002 50.021 29.4498 50.4689 30.0021 50.4689C30.5543 50.4689 31.0022 50.021 31.0022 49.4684V48.4686C31.0022 47.9164 30.5543 47.4685 30.0021 47.4685Z" fill="#0671B6"/>
<path d="M20.8109 44.2463L20.1038 44.9538C19.713 45.3442 19.7127 45.9774 20.1034 46.3681C20.4938 46.7585 21.1273 46.7592 21.5177 46.3688L22.2249 45.6613C22.6087 45.2643 22.5977 44.6315 22.2003 44.2477C21.8129 43.8735 21.1984 43.8735 20.8109 44.2477V44.2463Z" fill="#0671B6"/>
<path d="M18.0022 35.4683H17.0021C16.4495 35.4683 16.002 35.9165 16.002 36.4688C16.002 37.021 16.4495 37.4689 17.0021 37.4689H18.0022C18.5544 37.4689 19.002 37.021 19.002 36.4688C19.002 35.9165 18.5544 35.4683 18.0022 35.4683Z" fill="#0671B6"/>
<path d="M20.8114 28.6908C21.2083 29.0742 21.8419 29.0632 22.2253 28.6663C22.5992 28.2788 22.5992 27.664 22.2253 27.2769L21.5181 26.5701C21.1278 26.179 20.4946 26.179 20.1038 26.569C19.7131 26.9597 19.7127 27.5933 20.1031 27.9837L20.8114 28.6908Z" fill="#0671B6"/>
<path d="M57.002 25.4685C55.3452 25.4685 54.002 26.8118 54.002 28.4689V29.4686H45.4758C43.7675 25.7135 40.7572 22.7032 37.0021 20.9949V13.4689C37.0021 12.9163 36.5542 12.4688 36.002 12.4688H34.0017V6.46875H46.0017C47.6588 6.46875 49.0017 5.12549 49.0017 3.46875C49.0017 1.81201 47.6588 0.46875 46.0017 0.46875H14.0018C12.3451 0.46875 11.0022 1.81201 11.0022 3.46875C11.0022 5.12549 12.3451 6.46875 14.0018 6.46875H26.0022V12.4688H24.002C23.4497 12.4688 23.0018 12.9166 23.0018 13.4689V20.9949C19.2463 22.7032 16.2365 25.7135 14.5277 29.469H6.00195V28.4689C6.00195 26.8121 4.65869 25.4692 3.00195 25.4692C1.34521 25.4692 0.00195312 26.8118 0.00195312 28.4689V44.4686C0.00195312 46.1257 1.34521 47.4686 3.00195 47.4686C4.65869 47.4686 6.00195 46.1257 6.00195 44.4686V43.4689H14.5281C18.3784 52.0148 28.4276 55.8215 36.9739 51.9708C40.7502 50.2694 43.7744 47.2452 45.4758 43.4689H54.002V44.4686C54.002 46.1257 55.3452 47.4686 57.002 47.4686C58.6587 47.4686 60.002 46.1257 60.002 44.4686V28.4689C60.002 26.8118 58.6587 25.4685 57.002 25.4685ZM13.0021 3.46875C13.0021 2.9165 13.4496 2.46863 14.0018 2.46863H46.0017C46.5543 2.46863 47.0018 2.9165 47.0018 3.46875C47.0018 4.021 46.5543 4.46851 46.0017 4.46851H14.0018C13.4496 4.46851 13.0021 4.021 13.0021 3.46875ZM28.0021 6.46875H32.0018V12.4688H28.0021V6.46875ZM25.0017 14.4686H35.0022V20.2218C31.7444 19.218 28.2595 19.218 25.0017 20.2218V14.4686ZM4.00171 44.4686C4.00171 45.0212 3.5542 45.4688 3.00195 45.4688C2.44971 45.4688 2.00183 45.0212 2.00183 44.4686V28.4689C2.00183 27.9163 2.44971 27.4688 3.00195 27.4688C3.5542 27.4688 4.00171 27.9163 4.00171 28.4689V44.4686ZM6.00195 41.469V31.4685H13.755C12.7512 34.7263 12.7512 38.2108 13.755 41.469H6.00195ZM30.002 51.4688C21.7179 51.4688 15.002 44.7528 15.002 36.4688C15.002 28.1843 21.7179 21.4688 30.002 21.4688C38.286 21.4688 45.002 28.1843 45.002 36.4688C44.9928 44.7491 38.2823 51.4596 30.002 51.4688ZM46.2489 41.469C47.2527 38.2108 47.2527 34.7263 46.2489 31.4685H54.002V41.469H46.2489ZM58.0021 44.4686C58.0021 45.0212 57.5542 45.4688 57.002 45.4688C56.4497 45.4688 56.0022 45.0212 56.0022 44.4686V28.4689C56.0022 27.9163 56.4497 27.4688 57.002 27.4688C57.5542 27.4688 58.0021 27.9163 58.0021 28.4689V44.4686Z" fill="#0671B6"/>
</svg>
