<svg width="61" height="60" viewBox="0 0 61 60" fill="none" xmlns="http://www.w3.org/2000/svg">
<g clip-path="url(#clip0)">
<path d="M37.6615 7.47627C31.0617 4.14134 23.1116 5.41646 17.879 10.6491C11.7976 16.7305 11.1889 26.4273 16.4633 33.2047C16.6497 33.4442 16.9284 33.5696 17.2101 33.5696C17.4131 33.5696 17.6176 33.5046 17.7902 33.3702C18.2023 33.0494 18.2764 32.4554 17.9558 32.0433C13.266 26.0172 13.808 17.3946 19.2164 11.9862C23.8699 7.33248 30.9396 6.19834 36.8088 9.16401C37.2748 9.39979 37.8436 9.21252 38.0792 8.74647C38.3146 8.28041 38.1278 7.7117 37.6615 7.47627Z" fill="#0671B6"/>
<path d="M45.2104 15.028C44.9749 14.5619 44.4064 14.3749 43.94 14.6102C43.4739 14.8456 43.2868 15.4142 43.5222 15.8805C46.4858 21.7488 45.351 28.8176 40.6986 33.4699C35.2901 38.8782 26.6675 39.42 20.6415 34.7305C20.2292 34.4099 19.6353 34.484 19.3146 34.896C18.9939 35.3081 19.068 35.9022 19.4802 36.2229C22.5674 38.6255 26.2601 39.8072 29.9411 39.8072C34.3411 39.8072 38.7245 38.1184 42.0359 34.8071C47.2673 29.5758 48.543 21.6272 45.2104 15.028Z" fill="#0671B6"/>
<path d="M42.7667 11.4266C42.5325 11.1616 42.2864 10.8998 42.0353 10.6487C41.7841 10.3976 41.5224 10.1515 41.2574 9.91726C40.8661 9.57132 40.2684 9.60835 39.9228 9.99964C39.5768 10.3908 39.6136 10.9884 40.0049 11.3342C40.241 11.5428 40.4742 11.7621 40.698 11.9859C40.9216 12.2097 41.141 12.4428 41.3497 12.6789C41.5365 12.8903 41.7969 12.9982 42.0586 12.9982C42.2811 12.9982 42.5045 12.9201 42.6844 12.7612C43.0758 12.4155 43.1126 11.8179 42.7667 11.4266Z" fill="#0671B6"/>
<path d="M52.2756 24.4229C52.9061 23.3884 52.9061 22.1036 52.2754 21.0694L51.0314 19.0295C50.8676 18.7607 50.8042 18.4415 50.8532 18.1307L51.224 15.7749C51.413 14.5743 50.9198 13.3845 49.937 12.6695L48.0092 11.2673C47.7543 11.0817 47.5731 10.8112 47.4989 10.5048L46.9375 8.18463C46.6525 7.00607 45.7432 6.09693 44.5648 5.8117L42.2445 5.25013C41.9381 5.17595 41.6673 4.99478 41.482 4.7399L40.0795 2.81157C39.3647 1.82884 38.1748 1.33536 36.9745 1.5245L34.6179 1.89528C34.3071 1.94415 33.9878 1.88087 33.7192 1.71704L31.6789 0.47274C30.6446 -0.157964 29.3598 -0.157847 28.3255 0.47274L26.2855 1.71669C26.0169 1.88063 25.6978 1.94368 25.3867 1.89493L23.0307 1.52415C21.8305 1.33524 20.6404 1.82849 19.9256 2.81122L18.5233 4.73908C18.3378 4.99396 18.0671 5.17513 17.7607 5.24931L15.4405 5.81076C14.2621 6.09576 13.3528 7.00502 13.0675 8.18346L12.506 10.5038C12.4318 10.8101 12.2507 11.0809 11.9957 11.2662L10.0674 12.6687C9.08468 13.3834 8.59155 14.5731 8.78034 15.7737L9.15112 18.1305C9.19999 18.4414 9.13671 18.7606 8.97288 19.0292L7.7287 21.0695C7.09823 22.1038 7.09823 23.3887 7.72881 24.4229L8.97276 26.4629C9.13659 26.7317 9.19999 27.0509 9.151 27.3617L8.78022 29.7176C8.5912 30.9181 9.08444 32.108 10.0672 32.8229L11.995 34.2251C12.2499 34.4104 12.4311 34.6812 12.5053 34.9876L13.0667 37.3078C13.3517 38.4863 14.261 39.3955 15.4394 39.6807L16.4083 39.9152L9.8512 54.5419C9.71187 54.8528 9.75042 55.2144 9.95233 55.4889C10.1541 55.7633 10.4878 55.908 10.8262 55.8675L16.1022 55.2367L19.1416 59.595C19.3195 59.8499 19.6098 59.9996 19.9169 59.9996C19.9463 59.9996 19.9761 59.9982 20.0056 59.9955C20.3448 59.9637 20.6407 59.7517 20.78 59.441L27.4767 44.502L28.3253 45.0194C28.8424 45.3348 29.4221 45.4924 30.002 45.4924C30.5818 45.4924 31.1616 45.3347 31.6787 45.0194L32.5578 44.4834L39.263 59.441C39.4023 59.7519 39.6981 59.9637 40.0373 59.9955C40.067 59.9984 40.0966 59.9998 40.1261 59.9998C40.4332 59.9998 40.7236 59.85 40.9014 59.5951L43.9408 55.2368L49.2168 55.8676C49.555 55.9078 49.8889 55.7634 50.0907 55.489C50.2924 55.2145 50.3312 54.8529 50.1918 54.542L43.6313 39.9072L44.5637 39.6816C45.7421 39.3966 46.6514 38.4874 46.9367 37.3089L47.4982 34.9886C47.5724 34.6823 47.7536 34.4115 48.0085 34.2262L49.9368 32.8237C50.9195 32.109 51.4126 30.9193 51.2239 29.7187L50.8531 27.3619C50.8042 27.051 50.8675 26.7318 51.0313 26.4632L52.2756 24.4229ZM19.7375 57.1437L17.3288 53.6897C17.1291 53.4033 16.7877 53.25 16.441 53.2917L12.2599 53.7916L18.234 40.4647C18.3432 40.545 18.4412 40.6412 18.5219 40.7524L19.9244 42.6807C20.0577 42.8639 20.2074 43.0299 20.3707 43.1778L17.2262 50.1923C17.0127 50.6689 17.2257 51.2283 17.7022 51.4419C17.8278 51.4983 17.9592 51.5249 18.0883 51.5249C18.4495 51.5249 18.7945 51.3167 18.9516 50.9659L22.085 43.9763C22.3933 44.0186 22.7108 44.0179 23.0294 43.9678L25.3861 43.597C25.5272 43.5749 25.6698 43.5768 25.8087 43.5998L19.7375 57.1437ZM47.7833 53.7914L43.6021 53.2917C43.2551 53.2501 42.914 53.4033 42.7143 53.6897L40.3056 57.1437L34.2319 43.5945C34.3593 43.5772 34.4892 43.5772 34.6178 43.5974L36.9736 43.9681C37.3051 44.0203 37.6355 44.0186 37.9555 43.9709L41.0912 50.9661C41.2486 51.3171 41.5934 51.5251 41.9545 51.5251C42.0838 51.5251 42.2152 51.4985 42.3407 51.4421C42.8172 51.2286 43.0303 50.669 42.8167 50.1926L39.6602 43.1513C39.8125 43.01 39.9532 42.8536 40.0787 42.6811L41.481 40.7532C41.5693 40.6317 41.6776 40.5275 41.7993 40.4432L47.7833 53.7914ZM50.6609 23.4383L49.4167 25.4786C49.02 26.1295 48.8665 26.9027 48.985 27.6557L49.3558 30.0124C49.4337 30.508 49.23 30.9991 48.8244 31.2942L46.896 32.6968C46.2788 33.1459 45.8398 33.8017 45.6603 34.5437L45.0987 36.864C44.9809 37.3504 44.6057 37.7258 44.1191 37.8436L41.7988 38.405C41.0568 38.5845 40.4008 39.0235 39.9517 39.6409L38.5494 41.5687C38.2543 41.9745 37.7633 42.178 37.2675 42.0999L34.9116 41.7291C34.1584 41.6107 33.3851 41.764 32.7341 42.1609L30.6942 43.4048C30.2673 43.665 29.7367 43.665 29.31 43.4048L27.2696 42.1608C26.7622 41.8513 26.1805 41.69 25.5919 41.69C25.4255 41.69 25.2582 41.7029 25.0924 41.729L22.7356 42.0998C22.2399 42.1779 21.7489 41.9741 21.4538 41.5685L20.0512 39.6402C19.6022 39.0229 18.9463 38.5839 18.2043 38.4044L15.884 37.8428C15.3976 37.7251 15.0222 37.3498 14.9045 36.8633L14.343 34.5431C14.1635 33.801 13.7246 33.1449 13.1071 32.6959L11.1794 31.2935C10.7737 30.9984 10.5701 30.5071 10.6482 30.0115L11.019 27.6556C11.1375 26.9024 10.9842 26.1292 10.5873 25.4783L9.34331 23.4381C9.08304 23.0112 9.08304 22.4807 9.34331 22.0539L10.5875 20.0136C10.9843 19.3627 11.1377 18.5895 11.0192 17.8364L10.6484 15.4798C10.5705 14.9842 10.7742 14.4931 11.1798 14.198L13.1082 12.7954C13.7254 12.3463 14.1644 11.6904 14.3439 10.9485L14.9055 8.62819C15.0233 8.14174 15.3985 7.76639 15.8851 7.64861L18.2054 7.08717C18.9474 6.90764 19.6034 6.46865 20.0524 5.85131L21.4547 3.92345C21.7497 3.51775 22.2408 3.31396 22.7366 3.39212L25.0925 3.7629C25.8458 3.88161 26.6191 3.7281 27.27 3.33118L29.3099 2.08724C29.7368 1.82708 30.2674 1.82708 30.6941 2.08724L32.7344 3.3313C33.3853 3.72833 34.1588 3.88173 34.9117 3.76314L37.2684 3.39236C37.7639 3.31466 38.2552 3.5181 38.5502 3.92368L39.9529 5.85201C40.4019 6.46924 41.0578 6.90822 41.7997 7.08775L44.1201 7.64932C44.6065 7.76709 44.9819 8.14233 45.0996 8.62889L45.6611 10.9491C45.8406 11.6911 46.2795 12.3473 46.8969 12.7963L48.8248 14.1986C49.2305 14.4937 49.4341 14.9849 49.356 15.4805L48.9852 17.8364C48.8667 18.5896 49.02 19.3628 49.4169 20.0138L50.6609 22.0539C50.9213 22.4808 50.9213 23.0113 50.6609 23.4383Z" fill="#0671B6"/>
<path d="M41.0685 19.8043C40.8601 19.1629 40.3146 18.715 39.6447 18.6355L33.9552 17.9609L31.5554 12.7583C31.2728 12.1459 30.6783 11.7654 30.0038 11.7654C29.3294 11.7654 28.7348 12.1459 28.4522 12.7583L26.0525 17.961L20.3629 18.6356C19.693 18.7151 19.1474 19.163 18.9392 19.8045C18.7308 20.4456 18.9089 21.1287 19.4039 21.5865L23.6104 25.4766L22.4938 31.0962C22.3625 31.7578 22.6198 32.415 23.1656 32.8114C23.4666 33.03 23.8159 33.1408 24.1675 33.1408C24.4533 33.1408 24.7404 33.0676 25.0042 32.92L30.0037 30.1217L35.0032 32.92C35.5918 33.2495 36.2962 33.2079 36.842 32.8115C37.3877 32.415 37.645 31.7577 37.5136 31.0962L36.397 25.4767L40.6035 21.5866C41.0987 21.1288 41.2768 20.4458 41.0685 19.8043ZM34.7246 24.4477C34.4832 24.6709 34.3752 25.0036 34.4391 25.3261L35.5817 31.0766L30.4655 28.2129C30.3221 28.1326 30.163 28.0924 30.0037 28.0924C29.8444 28.0924 29.6854 28.1325 29.5419 28.2129L24.4257 31.0766L25.5683 25.3261C25.6325 25.0035 25.5243 24.6709 25.2828 24.4477L20.9782 20.4668L26.8008 19.7765C27.1273 19.7378 27.4103 19.5321 27.5481 19.2336L30.0038 13.9097L32.4595 19.2336C32.5973 19.5321 32.8802 19.7378 33.2068 19.7765L39.0292 20.4668L34.7246 24.4477Z" fill="#0671B6"/>
</g>
<defs>
<clipPath id="clip0">
<rect width="60" height="60" fill="white" transform="translate(0.00195312)"/>
</clipPath>
</defs>
</svg>
