<svg width="61" height="58" viewBox="0 0 61 58" fill="none" xmlns="http://www.w3.org/2000/svg">
<path d="M37.0332 7.90625C37.0332 4.02922 33.879 0.875 30.002 0.875C26.1249 0.875 22.9707 4.02922 22.9707 7.90625C22.9707 11.7833 26.1249 14.9375 30.002 14.9375C33.879 14.9375 37.0332 11.7833 37.0332 7.90625ZM30.002 12.5938C27.4173 12.5938 25.3145 10.4909 25.3145 7.90625C25.3145 5.32156 27.4173 3.21875 30.002 3.21875C32.5866 3.21875 34.6895 5.32156 34.6895 7.90625C34.6895 10.4909 32.5866 12.5938 30.002 12.5938Z" fill="#0671B6"/>
<path d="M40.5488 30.1719V25.4844C40.5488 19.6688 35.8175 14.9375 30.002 14.9375C24.1864 14.9375 19.4551 19.6688 19.4551 25.4844V30.1719C19.4551 30.8191 19.9798 31.3438 20.627 31.3438H39.377C40.0241 31.3438 40.5488 30.8191 40.5488 30.1719ZM38.2051 29H21.7988V25.4844C21.7988 20.9612 25.4788 17.2812 30.002 17.2812C34.5252 17.2812 38.2051 20.9612 38.2051 25.4844V29Z" fill="#0671B6"/>
<path d="M8.42281 46.8259L14.0645 49.6462V55.9531C14.0645 56.6004 14.5892 57.125 15.2363 57.125H27.6582C28.3053 57.125 28.8301 56.6004 28.8301 55.9531V41.0445C28.8301 37.32 26.0818 34.1067 22.5733 33.7293C22.4802 33.7118 18.0441 33.3812 15.8997 31.2382L12.6911 28.0297C11.8057 27.144 10.6286 26.6562 9.37695 26.6562V17.2812C9.37695 14.6966 7.27414 12.5938 4.68945 12.5938C2.10477 12.5938 0.00195312 14.6966 0.00195312 17.2812V33.2C0.00195312 38.967 3.25953 44.2436 8.42281 46.8259ZM2.3457 17.2812C2.3457 15.9889 3.39711 14.9375 4.68945 14.9375C5.9818 14.9375 7.0332 15.9889 7.0332 17.2812V27.2845C5.60398 28.1109 4.68945 29.6517 4.68945 31.3438C4.68945 32.5953 5.17719 33.7722 6.06277 34.6578L12.0639 40.6602C12.5213 41.1178 13.2635 41.118 13.7212 40.6603C14.1788 40.2027 14.1789 39.4607 13.7213 39.003L7.72016 33.0005C7.27719 32.5577 7.0332 31.9693 7.0332 31.3438C7.0332 30.3519 7.66098 29.4636 8.59555 29.1335C8.5959 29.1334 8.59625 29.1331 8.5966 29.133H8.59672C9.40297 28.8472 10.3623 29.0152 11.0339 29.6868L14.2428 32.8958C16.4284 35.0798 19.6136 35.6941 22.3095 36.0582C22.3139 36.0587 22.3183 36.0593 22.3228 36.0597C24.6575 36.3107 26.4863 38.5004 26.4863 41.0445V54.7812H16.4082V48.9219C16.4082 48.478 16.1573 48.0721 15.7604 47.8737L9.47106 44.7296C5.07605 42.5315 2.3457 38.1137 2.3457 33.2V17.2812Z" fill="#0671B6"/>
<path d="M53.791 45.1719C54.4382 45.1719 54.9629 44.6472 54.9629 44C54.9629 43.3528 54.4382 42.8281 53.791 42.8281C53.1438 42.8281 52.6191 43.3528 52.6191 44C52.6191 44.6472 53.1438 45.1719 53.791 45.1719Z" fill="#0671B6"/>
<path d="M55.3145 12.5938C52.7298 12.5938 50.627 14.6966 50.627 17.2812V26.6562C49.3753 26.6562 48.1982 27.144 47.3128 28.0296L44.1045 31.2378C42.2342 33.1068 39.2005 33.4184 37.4306 33.7295C33.9221 34.1068 31.1738 37.32 31.1738 41.0445V55.9531C31.1738 56.6004 31.6986 57.125 32.3457 57.125H44.7676C45.4147 57.125 45.9395 56.6004 45.9395 55.9531V49.6462L49.775 47.7288C50.3538 47.4393 50.5885 46.7355 50.2992 46.1565C50.0098 45.5777 49.3061 45.343 48.727 45.6323L44.2435 47.8735C43.8466 48.0721 43.5957 48.478 43.5957 48.9219V54.7812H33.5176V41.0445C33.5176 38.5004 35.3464 36.3107 37.6811 36.0596C37.6856 36.0591 37.69 36.0587 37.6944 36.0581C40.432 35.6884 43.5779 35.0775 45.7614 32.8954L48.97 29.6868C49.6408 29.0161 50.6005 28.8471 51.4072 29.133H51.4073C51.4077 29.1331 51.408 29.1334 51.4084 29.1335C52.3429 29.4636 52.9707 30.3519 52.9707 31.3438C52.9707 31.9693 52.7267 32.5577 52.2839 33.0008L46.2827 39.0031C45.8251 39.4609 45.8252 40.2028 46.2828 40.6604C46.7403 41.1179 47.4825 41.118 47.9401 40.6603L53.9413 34.6579C54.8267 33.7722 55.3145 32.5953 55.3145 31.3438C55.3145 29.6517 54.3999 28.1109 52.9707 27.2845V17.2812C52.9707 15.9889 54.0221 14.9375 55.3145 14.9375C56.6068 14.9375 57.6582 15.9889 57.6582 17.2812V33.2C57.6582 35.3441 57.1171 37.4727 56.0934 39.3556C55.7841 39.9242 55.9945 40.6358 56.5632 40.9449C57.1317 41.2539 57.8434 41.0437 58.1525 40.4751C59.3625 38.2497 60.002 35.7339 60.002 33.2V17.2812C60.002 14.6966 57.8991 12.5938 55.3145 12.5938Z" fill="#0671B6"/>
</svg>
