<svg width="61" height="60" viewBox="0 0 61 60" fill="none" xmlns="http://www.w3.org/2000/svg">
<path d="M58.4717 41.3695H50.2977V27.9229C50.2977 27.4374 49.9043 27.044 49.4188 27.044C48.9332 27.044 48.5398 27.4374 48.5398 27.9229V41.3695C46.7398 41.3695 35.1918 41.3695 33.2676 41.3695V37.5609C33.2676 37.0754 32.8742 36.682 32.3887 36.682H23.5632C23.5632 35.6013 23.5632 17.5233 23.5632 15.7302H33.5451V19.3459C33.5451 20.1198 34.1746 20.7493 34.9486 20.7493H37.1545C37.9284 20.7493 38.558 20.1198 38.558 19.3459V15.7302H48.54V24.409C48.54 24.8945 48.9334 25.2879 49.4189 25.2879C49.9044 25.2879 50.2978 24.8945 50.2978 24.409V15.5027C50.2978 14.659 49.6113 13.9724 48.7674 13.9724C44.4533 13.9724 34.2838 13.9724 30.2688 13.9724V1.55306C30.2688 0.709307 29.5823 0.0227051 28.7384 0.0227051H12.5959C11.752 0.0227051 11.0655 0.709189 11.0655 1.55306V7.10962C11.0655 7.59513 11.459 7.98853 11.9444 7.98853C12.4298 7.98853 12.8233 7.59513 12.8233 7.10962V1.78052H18.1606V5.39622C18.1606 6.17013 18.7902 6.79966 19.5641 6.79966H21.7701C22.544 6.79966 23.1736 6.17013 23.1736 5.39622V1.78052H28.5109V13.9724H22.6844C22.199 13.9724 21.8055 14.3658 21.8055 14.8513V22.1755H12.8234V10.6236C12.8234 10.1381 12.4299 9.7447 11.9445 9.7447C11.4591 9.7447 11.0656 10.1381 11.0656 10.6236V22.1756H5.89039C5.04652 22.1756 4.36004 22.862 4.36004 23.7058V36.682H1.53219C0.688437 36.682 0.00195312 37.3685 0.00195312 38.2124V59.0987C0.00195312 59.5842 0.395469 59.9776 0.880859 59.9776H10.1874C10.6728 59.9776 11.0663 59.5842 11.0663 59.0987C11.0663 58.6132 10.6728 58.2198 10.1874 58.2198H1.75977V38.4398H14.1283V42.0554C14.1283 42.8293 14.758 43.459 15.5318 43.459H17.7377C18.5116 43.459 19.1411 42.8293 19.1411 42.0554V38.4398H31.5097V58.2198H13.7014C13.216 58.2198 12.8225 58.6132 12.8225 59.0987C12.8225 59.5842 13.216 59.9776 13.7014 59.9776H59.1229C59.6084 59.9776 60.0018 59.5842 60.0018 59.0987V42.8999C60.002 42.0561 59.3155 41.3695 58.4717 41.3695ZM21.4156 5.04173H19.9184V1.78063H21.4156V5.04173ZM36.8001 15.7302V18.9914H35.3029V15.7302H36.8001ZM13.213 23.9334H14.7103V27.1945H13.213V23.9334ZM6.11785 23.9334H11.4552V27.549C11.4552 28.3229 12.0848 28.9524 12.8586 28.9524H15.0646C15.8386 28.9524 16.4681 28.3229 16.4681 27.549V23.9334H21.8054V36.682C18.408 36.682 8.95742 36.682 6.11785 36.682V23.9334ZM17.3833 41.701H15.8861V38.4398H17.3833V41.701ZM46.5045 43.1273V46.3885H45.0072V43.1273H46.5045ZM58.2441 58.2198H33.2676V43.1273H43.2494V46.7429C43.2494 47.5168 43.8791 48.1465 44.653 48.1465H46.8589C47.6328 48.1465 48.2625 47.5168 48.2625 46.7429V43.1273H58.2443V58.2198H58.2441Z" fill="#0671B6"/>
</svg>
