<svg width="61" height="46" viewBox="0 0 61 46" fill="none" xmlns="http://www.w3.org/2000/svg">
<path d="M6.42772 29.1696H13.9093C14.5564 29.1696 15.0812 28.6449 15.0812 27.9978V20.4619C15.0812 19.8148 14.5564 19.29 13.9093 19.29H9.72854C9.26307 19.29 8.8419 19.5654 8.6551 19.9918L5.35429 27.5276C5.19562 27.8899 5.23042 28.3078 5.44687 28.6389C5.66331 28.9699 6.0321 29.1696 6.42772 29.1696ZM10.4946 21.6339H12.7374V26.826H8.22046L10.4946 21.6339Z" fill="#0671B6"/>
<path d="M58.8301 0.0410156H44.3021C43.655 0.0410156 43.1302 0.565781 43.1302 1.21289C43.1302 1.86 43.655 2.38477 44.3021 2.38477H57.6582V38.7608H51.3393C51.3473 38.6179 51.3514 38.4738 51.3514 38.3289C51.3514 34.1217 47.9316 30.6989 43.7284 30.6989C39.5251 30.6989 36.1053 34.1217 36.1053 38.3289C36.1053 38.4738 36.1094 38.6179 36.1174 38.7608H20.3348V2.38477H33.6909C34.338 2.38477 34.8628 1.86 34.8628 1.21289C34.8628 0.565781 34.338 0.0410156 33.6909 0.0410156H19.1629C18.5158 0.0410156 17.9911 0.565781 17.9911 1.21289V14.0307H6.29539C5.82992 14.0307 5.40875 14.3063 5.22195 14.7325L0.100391 26.4253C0.0354687 26.5736 0.00195312 26.7336 0.00195312 26.8955V39.9327C0.00195312 40.5798 0.526719 41.1046 1.17383 41.1046H4.6373C5.14543 43.8628 7.56617 45.9588 10.4668 45.9588C13.3673 45.9588 15.788 43.8628 16.2962 41.1046H36.6273C37.7388 43.9433 40.5028 45.9588 43.7282 45.9588C46.9537 45.9588 49.7177 43.9434 50.8292 41.1046H58.8301C59.4772 41.1046 60.002 40.5798 60.002 39.9327V1.21289C60.002 0.565781 59.4772 0.0410156 58.8301 0.0410156ZM2.3457 27.1409L7.06145 16.3745H17.9911V38.7608H16.2588C15.678 36.0953 13.3017 34.0934 10.4669 34.0934C7.63215 34.0934 5.2557 36.0953 4.67492 38.7608H2.3457V27.1409ZM10.4669 43.6151C8.49078 43.6151 6.88297 42.0052 6.88297 40.0261C6.88297 38.047 8.49078 36.4371 10.4669 36.4371C12.443 36.4371 14.0507 38.047 14.0507 40.0261C14.0507 42.0052 12.443 43.6151 10.4669 43.6151ZM43.7284 43.6151C40.8173 43.6151 38.4491 41.2438 38.4491 38.329C38.4491 35.4142 40.8173 33.0428 43.7284 33.0428C46.6394 33.0428 49.0077 35.4142 49.0077 38.329C49.0077 41.2438 46.6394 43.6151 43.7284 43.6151Z" fill="#0671B6"/>
<path d="M37.9351 1.66133C38.1257 2.11848 38.5968 2.41367 39.0917 2.38203C39.5748 2.35109 39.9967 2.01605 40.1382 1.55351C40.2816 1.08477 40.1072 0.555899 39.7097 0.267501C39.3266 -0.0104672 38.8021 -0.031209 38.3994 0.218048C37.9184 0.515939 37.7175 1.13844 37.9351 1.66133Z" fill="#0671B6"/>
<path d="M28.5531 16.563C29.2002 16.563 29.725 16.0382 29.725 15.3911C29.725 14.744 29.2002 14.2192 28.5531 14.2192H24.2969C23.6498 14.2192 23.125 14.744 23.125 15.3911V25.8924C23.125 26.5395 23.6498 27.0643 24.2969 27.0643C24.944 27.0643 25.4687 26.5395 25.4687 25.8924V21.7142H28.215C28.8621 21.7142 29.3869 21.1894 29.3869 20.5423C29.3869 19.8952 28.8621 19.3704 28.215 19.3704H25.4687V16.563H28.5531Z" fill="#0671B6"/>
<path d="M45.1844 16.5823C45.8315 16.5823 46.3562 16.0575 46.3562 15.4104C46.3562 14.7633 45.8315 14.2385 45.1844 14.2385H40.7676C40.1205 14.2385 39.5957 14.7633 39.5957 15.4104V25.8926C39.5957 26.5397 40.1205 27.0645 40.7676 27.0645H45.1844C45.8315 27.0645 46.3562 26.5397 46.3562 25.8926C46.3562 25.2455 45.8315 24.7207 45.1844 24.7207H41.9395V21.8235H44.8587C45.5058 21.8235 46.0306 21.2987 46.0306 20.6516C46.0306 20.0045 45.5058 19.4797 44.8587 19.4797H41.9395V16.5823H45.1844Z" fill="#0671B6"/>
<path d="M53.696 16.5823C54.3431 16.5823 54.8679 16.0575 54.8679 15.4104C54.8679 14.7633 54.3431 14.2385 53.696 14.2385H49.2793C48.6322 14.2385 48.1074 14.7633 48.1074 15.4104V25.8926C48.1074 26.5397 48.6322 27.0645 49.2793 27.0645H53.696C54.3431 27.0645 54.8679 26.5397 54.8679 25.8926C54.8679 25.2455 54.3431 24.7207 53.696 24.7207H50.4512V21.8235H53.3704C54.0175 21.8235 54.5423 21.2987 54.5423 20.6516C54.5423 20.0045 54.0175 19.4797 53.3704 19.4797H50.4512V16.5823H53.696Z" fill="#0671B6"/>
<path d="M31.6266 14.0813C31.626 14.0813 31.6254 14.0813 31.6248 14.0813C31.6242 14.0813 31.6236 14.0813 31.623 14.0813C30.9759 14.0813 30.4512 14.6061 30.4512 15.2532V25.8318C30.4512 26.4789 30.9759 27.0037 31.623 27.0037C32.2702 27.0037 32.7949 26.4789 32.7949 25.8318V22.4385L36.4629 26.606C36.6946 26.8692 37.0179 27.0037 37.3431 27.0037C37.6181 27.0037 37.8942 26.9075 38.1169 26.7115C38.6027 26.2839 38.65 25.5434 38.2223 25.0577L35.3723 21.8195C37.1714 21.4122 38.5145 19.8554 38.5145 18.0025C38.5145 15.8404 36.6858 14.0813 34.4378 14.0813H31.6266ZM36.1707 18.0024C36.1707 18.8574 35.3771 19.5797 34.4378 19.5797C34.0623 19.5797 33.3983 19.5826 32.8113 19.5855C32.8084 19.0102 32.8055 18.3644 32.8055 18.0024C32.8055 17.6936 32.8037 17.0256 32.8021 16.4249H34.4378C35.3771 16.4251 36.1707 17.1474 36.1707 18.0024Z" fill="#0671B6"/>
</svg>
