<svg width="22" height="23" viewBox="0 0 22 23" fill="none" xmlns="http://www.w3.org/2000/svg">
<path d="M11.0017 0.998535C4.92677 0.998535 0.00195312 5.9235 0.00195312 11.9984C0.00195312 18.0732 4.92677 22.9985 11.0017 22.9985C17.0766 22.9985 22.0018 18.0732 22.0018 11.9984C22.0018 5.9235 17.0766 0.998535 11.0017 0.998535ZM11.0019 4.86221L17.5113 8.92125H4.49256L11.0019 4.86221ZM17.5924 15.403H17.5917C17.5917 16.0541 17.0641 16.5817 16.4131 16.5817H5.59074C4.93968 16.5817 4.41212 16.054 4.41212 15.403V9.17954C4.41212 9.11068 4.41916 9.04372 4.4306 8.97794L10.6499 12.8561C10.6575 12.8608 10.6657 12.8641 10.6735 12.8685C10.6817 12.873 10.6901 12.8774 10.6985 12.8816C10.7424 12.9042 10.7876 12.9225 10.8339 12.9345C10.8387 12.9358 10.8434 12.9364 10.8482 12.9375C10.899 12.9494 10.9504 12.9569 11.0017 12.9569H11.0021C11.0024 12.9569 11.0028 12.9569 11.0028 12.9569C11.0541 12.9569 11.1055 12.9496 11.1563 12.9375C11.161 12.9363 11.1658 12.9358 11.1706 12.9345C11.2168 12.9225 11.2619 12.9042 11.306 12.8816C11.3144 12.8774 11.3228 12.873 11.331 12.8685C11.3387 12.8641 11.347 12.8608 11.3546 12.8561L17.5739 8.97794C17.5853 9.04372 17.5924 9.11053 17.5924 9.17954V15.403Z" fill="#0671B6"/>
</svg>
