<svg width="22" height="23" viewBox="0 0 22 23" fill="none" xmlns="http://www.w3.org/2000/svg">
<path d="M18.777 4.2187C14.4806 -0.0764135 7.51577 -0.0753821 3.22065 4.22106C-1.07446 8.51751 -1.07343 15.4823 3.22302 19.7774C7.51946 24.0725 14.4843 24.0715 18.7794 19.7751C20.8421 17.7117 22.0007 14.9133 22 11.9957C21.9994 9.07855 20.8401 6.28111 18.777 4.2187ZM16.6591 16.3209C16.6587 16.3214 16.6582 16.3219 16.6577 16.3224V16.3187L16.1003 16.8724C15.3795 17.6023 14.3298 17.9026 13.332 17.6644C12.3267 17.3953 11.3711 16.967 10.5013 16.3957C9.69325 15.8793 8.94439 15.2756 8.26832 14.5954C7.64626 13.9779 7.08741 13.2998 6.59997 12.5714C6.06682 11.7876 5.64482 10.9337 5.34597 10.034C5.00338 8.97719 5.28728 7.8175 6.07932 7.03839L6.73197 6.38574C6.91343 6.20347 7.20828 6.20282 7.39051 6.38428C7.39099 6.38475 7.3915 6.38523 7.39197 6.38574L9.45263 8.4464C9.6349 8.62785 9.63554 8.9227 9.45409 9.10493C9.45361 9.10541 9.45314 9.10588 9.45263 9.1064L8.24263 10.3164C7.89544 10.6598 7.85178 11.2055 8.13997 11.5997C8.57761 12.2004 9.06191 12.7655 9.58832 13.2901C10.1752 13.8795 10.8133 14.4157 11.495 14.8924C11.8889 15.1672 12.4229 15.1209 12.7636 14.7824L13.9333 13.5944C14.1147 13.4122 14.4096 13.4115 14.5918 13.593C14.5923 13.5934 14.5928 13.5939 14.5933 13.5944L16.6576 15.6624C16.8399 15.8439 16.8406 16.1387 16.6591 16.3209Z" fill="#0671B6"/>
</svg>
