<?xml version="1.0" encoding="UTF-8" standalone="no"?>
<svg
   xmlns:dc="http://purl.org/dc/elements/1.1/"
   xmlns:cc="http://creativecommons.org/ns#"
   xmlns:rdf="http://www.w3.org/1999/02/22-rdf-syntax-ns#"
   xmlns:svg="http://www.w3.org/2000/svg"
   xmlns="http://www.w3.org/2000/svg"
   id="svg1051"
   version="1.1"
   viewBox="0 0 100.16158 13.508905"
   height="51.057278"
   width="378.56345">
  <defs
     id="defs1045" />
  <metadata
     id="metadata1048">
    <rdf:RDF>
      <cc:Work
         rdf:about="">
        <dc:format>image/svg+xml</dc:format>
        <dc:type
           rdf:resource="http://purl.org/dc/dcmitype/StillImage" />
        <dc:title></dc:title>
      </cc:Work>
    </rdf:RDF>
  </metadata>
  <g
     transform="translate(-119.25254,-88.495545)"
     id="layer1">
    <path
       id="path843"
       d="m 144.65555,99.558435 c -0.20809,0.43132 -0.50712,0.796495 -0.89848,1.099665 -0.4396,0.3018 -0.95774,0.48921 -1.55581,0.55949 -0.26872,0.0289 -0.86679,0.0427 -1.7942,0.0427 h -3.35139 v -2.240685 h 4.028 c 0.36656,0 0.65319,-0.0937 0.86128,-0.27974 0.19568,-0.17225 0.29352,-0.40101 0.29352,-0.68902 0,-0.23013 -0.0854,-0.46026 -0.25632,-0.6904 -0.17225,-0.22875 -0.43959,-0.45337 -0.80615,-0.66697 l -2.45429,-1.48828 c -0.5016,-0.30041 -0.90399,-0.68901 -1.20854,-1.16168 -0.30592,-0.4892 -0.4575,-0.97703 -0.4575,-1.46486 0,-0.51676 0.091,-0.97014 0.27423,-1.35874 0.17087,-0.38723 0.4327,-0.73174 0.78823,-1.03353 0.38999,-0.30179 0.89021,-0.50987 1.50069,-0.62425 0.45062,-0.0868 1.1231,-0.13091 2.01469,-0.13091 h 2.58244 v 2.17729 h -2.96691 c -0.56224,0 -0.97703,0.0717 -1.24437,0.21498 -0.24529,0.12953 -0.36656,0.33762 -0.36656,0.62563 0,0.21359 0.0785,0.42995 0.23702,0.64492 0.17226,0.23151 0.4203,0.46027 0.75103,0.6904 l 2.45429,1.42075 c 0.62287,0.38861 1.09278,0.81994 1.40973,1.29398 0.32935,0.50161 0.49472,1.04869 0.49472,1.63711 0,0.51815 -0.10887,0.99081 -0.32935,1.42214"
       style="fill:#fd0305;fill-opacity:1;fill-rule:evenodd;stroke:none;stroke-width:0.352777" />
    <path
       id="path845"
       d="m 153.9573,100.18269 c -0.81717,0.86265 -1.90444,1.2926 -3.25906,1.2926 -1.32016,0 -2.39365,-0.42995 -3.22323,-1.2926 -0.85576,-0.917775 -1.28295,-2.131835 -1.28295,-3.640785 v -7.11067 h 2.43637 v 7.26225 c 0,0.81856 0.18328,1.43592 0.54984,1.85209 0.35415,0.41755 0.85989,0.62563 1.51997,0.62563 0.69453,0 1.22646,-0.20808 1.59302,-0.62563 0.36517,-0.41617 0.54846,-1.03353 0.54846,-1.85209 v -7.26225 h 2.36333 v 7.11067 c 0,1.52136 -0.41479,2.73679 -1.24575,3.640785"
       style="fill:#fd0305;fill-opacity:1;fill-rule:evenodd;stroke:none;stroke-width:0.352777" />
    <path
       id="path847"
       d="m 163.95635,96.182235 c -0.87919,0.74552 -2.04501,1.11897 -3.49746,1.11897 h 0.0744 v -2.30546 h 0.0909 c 0.67111,0 1.19614,-0.16398 1.57372,-0.49471 0.36655,-0.33073 0.54983,-0.76206 0.54983,-1.29398 0,-0.50298 -0.16398,-0.90399 -0.49471,-1.20578 -0.32935,-0.3018 -0.74965,-0.452 -1.26229,-0.452 -0.54983,0 -0.97151,0.16399 -1.26366,0.49472 -0.31832,0.34451 -0.4768,0.84749 -0.4768,1.50757 v 7.714255 h -2.52731 v -7.714255 c 0,-1.30638 0.40238,-2.35507 1.20854,-3.14468 0.79375,-0.791 1.84244,-1.18512 3.15019,-1.18512 1.17133,0 2.16628,0.39412 2.98483,1.18512 0.80615,0.78961 1.20854,1.74459 1.20854,2.86632 0,1.192 -0.43959,2.16076 -1.31878,2.90903"
       style="fill:#fd0305;fill-opacity:1;fill-rule:evenodd;stroke:none;stroke-width:0.352777" />
    <path
       id="path849"
       d="m 172.00823,101.26168 c 0,0 -0.39688,-0.073 -1.19063,-0.21635 -0.80615,-0.17363 -1.49517,-0.42443 -2.06981,-0.75379 -0.87919,-0.559475 -1.55581,-1.265035 -2.03261,-2.112525 -0.4768,-0.84749 -0.71382,-1.78732 -0.71382,-2.82084 0,-1.00597 0.23702,-1.93201 0.71382,-2.77951 0.4768,-0.81993 1.15342,-1.51033 2.03261,-2.06843 0.56224,-0.37483 1.25126,-0.6463 2.06981,-0.81855 0.78135,-0.17226 1.72117,-0.26045 2.82085,-0.26045 h -0.0744 v 2.17729 h -0.31006 c -1.22232,0 -2.18695,0.2012 -2.89388,0.60359 -0.75792,0.41617 -1.34359,1.11207 -1.75838,2.0891 h 4.96232 v 2.02572 h -4.96232 c 0.29352,1.00459 0.83647,1.73081 1.63022,2.17592 0.75654,0.44511 1.7887,0.66835 3.09507,0.66835 h 0.23703 v 2.090485 h 0.0744 c -1.08727,0 -1.63022,0 -1.63022,0"
       style="fill:#fd0305;fill-opacity:1;fill-rule:evenodd;stroke:none;stroke-width:0.352777" />
    <path
       id="path851"
       d="m 181.08123,101.26582 v -2.607245 c 0,-0.81856 -0.17777,-1.37804 -0.53192,-1.67983 -0.34176,-0.28801 -0.97703,-0.43133 -1.90583,-0.43133 h 0.0758 v -2.0891 h 0.0717 c 0.63528,0 1.11759,-0.13781 1.44694,-0.40928 0.31695,-0.27285 0.4768,-0.66008 0.4768,-1.16444 0,-0.43133 -0.14056,-0.78962 -0.42168,-1.07763 -0.28112,-0.27147 -0.65319,-0.40928 -1.11759,-0.40928 -0.51263,0 -0.91639,0.17226 -1.20854,0.51815 -0.30592,0.35829 -0.45751,0.88194 -0.45751,1.57234 v 7.777645 h -2.52732 v -7.842415 c 0,-1.2361 0.39688,-2.24207 1.19063,-3.01652 0.79237,-0.791 1.81763,-1.18512 3.07716,-1.18512 1.1355,0 2.10564,0.33073 2.91042,0.99219 0.80614,0.6587 1.20991,1.42765 1.20991,2.30546 0,0.57326 -0.16537,1.06936 -0.49471,1.48552 -0.34176,0.43133 -0.83647,0.76068 -1.48415,0.99081 l 0.0744,0.58153 c 0.75654,0.073 1.29397,0.28802 1.61092,0.64768 0.30454,0.35829 0.45751,0.89711 0.45751,1.61506 v 3.425805 h -2.45291"
       style="fill:#fd0305;fill-opacity:1;fill-rule:evenodd;stroke:none;stroke-width:0.352777" />
    <path
       id="path853"
       d="m 188.8699,101.26168 c -1.3808,0 -2.39917,-0.31005 -3.05925,-0.92742 -0.6587,-0.617355 -0.98943,-1.580605 -0.98943,-2.886985 v -8.01604 h 2.45429 v 8.01604 c 0,0.56087 0.13367,0.97565 0.40376,1.24988 0.26734,0.27286 0.68902,0.4079 1.26229,0.4079 h 2.14422 v 2.156625 h -2.21588"
       style="fill:#fd0305;fill-opacity:1;fill-rule:evenodd;stroke:none;stroke-width:0.352777" />
    <path
       id="path855"
       d="m 201.29154,95.362305 c 0,1.04869 -0.35416,1.93063 -1.06247,2.65135 -0.70694,0.73036 -1.57372,1.09829 -2.60036,1.09829 -1.00046,0 -1.85622,-0.36793 -2.56315,-1.09829 -0.73312,-0.73312 -1.09968,-1.61782 -1.09968,-2.65135 0.001,-1.03353 0.36656,-1.92512 1.09968,-2.67201 0.70693,-0.71796 1.56269,-1.07763 2.56315,-1.07763 1.02664,0 1.89342,0.35967 2.60036,1.07763 0.70831,0.73311 1.06247,1.6247 1.06247,2.67201 z m 2.60035,0 c 0,-0.80477 -0.16536,-1.5875 -0.49334,-2.34817 -0.30592,-0.71934 -0.7524,-1.37942 -1.33807,-1.983 -0.58705,-0.57464 -1.25677,-1.01837 -2.01469,-1.33532 -0.76757,-0.31557 -1.5751,-0.47542 -2.41708,-0.47542 -0.80478,0 -1.5875,0.15985 -2.34542,0.47542 -0.76757,0.32935 -1.44005,0.77583 -2.01332,1.33532 -0.59806,0.58842 -1.05557,1.24988 -1.3739,1.983 -0.30455,0.73173 -0.45751,1.51584 -0.45751,2.34817 0,0.83234 0.15296,1.62333 0.45751,2.37023 0.31833,0.76068 0.77584,1.41524 1.3739,1.96095 0.56087,0.588425 1.23335,1.041785 2.01332,1.357355 0.73311,0.28526 1.51584,0.42995 2.34542,0.42995 0.85438,0 1.66053,-0.14469 2.41708,-0.42995 0.78272,-0.31557 1.45383,-0.76893 2.01469,-1.357355 0.57326,-0.55949 1.02112,-1.21543 1.33807,-1.96095 0.32798,-0.77584 0.49334,-1.56545 0.49334,-2.37023"
       style="fill:#fd0305;fill-opacity:1;fill-rule:evenodd;stroke:none;stroke-width:0.352777" />
    <path
       id="path857"
       d="m 212.77335,92.578665 c -0.20671,0.41479 -0.40101,0.71796 -0.58705,0.90538 -0.34037,0.32935 -0.88332,0.68212 -1.62746,1.05419 1.2926,0.21636 2.16076,0.58843 2.60036,1.12035 0.35415,0.44511 0.53192,1.19338 0.53192,2.24207 v 3.361035 h -2.43775 v -2.909045 c 0,-0.80477 -0.12816,-1.36425 -0.38447,-1.6812 -0.29352,-0.32935 -0.83096,-0.49472 -1.61093,-0.49472 h -1.66605 v 5.084965 h -2.45566 V 89.431235 h 2.45566 v 4.35322 h 0.84198 c 0.52366,0 0.94534,-0.19431 1.26367,-0.58154 0.24529,-0.27285 0.55535,-0.84749 0.93293,-1.72254 l 0.91639,-2.04914 h 2.74643 l -1.51997,3.14743"
       style="fill:#fd0305;fill-opacity:1;fill-rule:evenodd;stroke:none;stroke-width:0.352777" />
    <path
       id="path859"
       d="m 123.39793,90.539175 c 0,1.12999 -0.91502,2.04501 -2.04501,2.04501 -1.12861,0 -2.04363,-0.91502 -2.04363,-2.04501 0,-1.12862 0.91502,-2.04363 2.04363,-2.04363 1.12999,0 2.04501,0.91501 2.04501,2.04363"
       style="fill:#0b4efc;fill-opacity:1;fill-rule:evenodd;stroke:none;stroke-width:0.352777" />
    <path
       id="path861"
       d="m 132.76721,99.295225 c 0,1.496555 -1.21267,2.709225 -2.70922,2.709225 -1.49517,0 -2.70785,-1.21268 -2.70785,-2.709225 0,-1.49517 1.21268,-2.70784 2.70785,-2.70784 1.49655,0 2.70922,1.21267 2.70922,2.70784"
       style="fill:#0b4efc;fill-opacity:1;fill-rule:evenodd;stroke:none;stroke-width:0.352777" />
    <path
       id="path863"
       d="m 132.88434,93.864375 c 0,0 -7.60676,-0.051 -8.2448,8.068425 h -5.38675 c 0,0 -0.10197,-5.694065 3.85438,-9.344485 3.95634,-3.65042 7.37801,-4.00733 9.72619,-4.0845 l 0.051,5.36056"
       style="fill:#0b4efc;fill-opacity:1;fill-rule:evenodd;stroke:none;stroke-width:0.352777" />
    <path
       id="path865"
       d="m 217.76874,88.849695 c 0.28249,0 0.55397,0.0703 0.81166,0.21222 0.26045,0.14056 0.4644,0.34313 0.61185,0.60634 0.14883,0.2632 0.22186,0.53881 0.22186,0.82682 0.001,0.28663 -0.0717,0.55948 -0.21773,0.81993 -0.14607,0.25907 -0.34726,0.46164 -0.60771,0.60772 -0.26045,0.14469 -0.5333,0.21773 -0.81993,0.21773 -0.28664,0 -0.55949,-0.073 -0.81994,-0.21773 -0.25907,-0.14608 -0.46164,-0.34865 -0.60771,-0.60772 -0.14469,-0.26045 -0.21773,-0.5333 -0.21773,-0.81993 0,-0.28801 0.0744,-0.56362 0.22186,-0.82682 0.14883,-0.26459 0.35278,-0.46578 0.61185,-0.60634 0.25907,-0.14194 0.52917,-0.21222 0.81167,-0.21222 z m 0.003,0.32246 c -0.226,0 -0.44373,0.0565 -0.65181,0.1695 -0.20671,0.113 -0.3707,0.27561 -0.48921,0.48783 -0.12127,0.21084 -0.18052,0.43408 -0.18052,0.66559 0,0.23013 0.0592,0.45062 0.17501,0.66008 0.11713,0.20808 0.27974,0.37207 0.48783,0.4892 0.20946,0.11714 0.42857,0.17639 0.6587,0.17639 0.23013,0 0.44924,-0.0592 0.6587,-0.17639 0.20808,-0.11713 0.37069,-0.28112 0.48783,-0.4892 0.11713,-0.20946 0.17638,-0.42995 0.17638,-0.66008 0,-0.23151 -0.0593,-0.45475 -0.17914,-0.66559 -0.11986,-0.21222 -0.28385,-0.37483 -0.49193,-0.48783 -0.20808,-0.113 -0.42581,-0.1695 -0.65181,-0.1695 z m -0.74549,2.20349 v -1.74598 h 0.35416 c 0.3321,0 0.51952,10e-4 0.5581,0.004 0.11851,0.01 0.20946,0.0331 0.27423,0.0703 0.0661,0.0358 0.11989,0.0923 0.16261,0.16675 0.0441,0.0758 0.0661,0.15985 0.0661,0.2508 0,0.1254 -0.04,0.23289 -0.12402,0.32246 -0.0813,0.091 -0.19706,0.14607 -0.34589,0.16675 0.0524,0.0207 0.0937,0.0427 0.12264,0.0661 0.0276,0.0234 0.0675,0.0675 0.11714,0.13367 0.0138,0.0165 0.0565,0.0882 0.12953,0.21222 l 0.20533,0.35277 h -0.43684 l -0.14745,-0.2825 c -0.0978,-0.19154 -0.18052,-0.31143 -0.24391,-0.36104 -0.0648,-0.0482 -0.14608,-0.0744 -0.2453,-0.0744 h -0.0923 v 0.71795 z m 0.35416,-0.99219 h 0.14469 c 0.20395,0 0.33073,-0.008 0.38034,-0.0234 0.0496,-0.0165 0.0882,-0.0441 0.11713,-0.0827 0.0289,-0.04 0.0427,-0.0841 0.0427,-0.13505 0,-0.0482 -0.0138,-0.0923 -0.0413,-0.12953 -0.0275,-0.0372 -0.0675,-0.0648 -0.11989,-0.0813 -0.051,-0.0165 -0.17776,-0.0248 -0.37896,-0.0248 h -0.14469 v 0.4768"
       style="fill:#fd0305;fill-opacity:1;fill-rule:evenodd;stroke:none;stroke-width:0.352777" />
  </g>
</svg>
